%TF.GenerationSoftware,KiCad,Pcbnew,7.0.0-rc1-unknown-0.4.rc2.fc37*%
%TF.CreationDate,2023-02-14T20:33:30-08:00*%
%TF.ProjectId,prius_gen2,70726975-735f-4676-956e-322e6b696361,rev?*%
%TF.SameCoordinates,Original*%
%TF.FileFunction,Legend,Bot*%
%TF.FilePolarity,Positive*%
%FSLAX46Y46*%
G04 Gerber Fmt 4.6, Leading zero omitted, Abs format (unit mm)*
G04 Created by KiCad (PCBNEW 7.0.0-rc1-unknown-0.4.rc2.fc37) date 2023-02-14 20:33:30*
%MOMM*%
%LPD*%
G01*
G04 APERTURE LIST*
%ADD10C,0.120000*%
%ADD11C,0.100000*%
%ADD12C,0.150000*%
%ADD13C,0.300000*%
%ADD14C,0.127000*%
%ADD15C,0.400000*%
%ADD16C,0.500000*%
%ADD17R,1.600000X1.600000*%
%ADD18C,1.600000*%
%ADD19C,2.000000*%
%ADD20R,2.625000X2.625000*%
%ADD21C,2.625000*%
%ADD22C,0.990600*%
%ADD23C,0.787400*%
%ADD24R,1.700000X1.700000*%
%ADD25O,1.700000X1.700000*%
%ADD26C,0.600000*%
G04 APERTURE END LIST*
D10*
X149675000Y-77999500D02*
X149675000Y-68899500D01*
D11*
G36*
X187377000Y-74299500D02*
G01*
X173677000Y-74299500D01*
X173677000Y-69199500D01*
X187377000Y-69199500D01*
X187377000Y-74299500D01*
G37*
X187377000Y-74299500D02*
X173677000Y-74299500D01*
X173677000Y-69199500D01*
X187377000Y-69199500D01*
X187377000Y-74299500D01*
D10*
X149675000Y-68899500D02*
X154855000Y-68899500D01*
X154855000Y-68899500D02*
X154855000Y-77999500D01*
X154855000Y-77999500D02*
X149675000Y-77999500D01*
D12*
X192315160Y-71334019D02*
X192315160Y-72334019D01*
X192315160Y-72334019D02*
X192553255Y-72334019D01*
X192553255Y-72334019D02*
X192696112Y-72286400D01*
X192696112Y-72286400D02*
X192791350Y-72191161D01*
X192791350Y-72191161D02*
X192838969Y-72095923D01*
X192838969Y-72095923D02*
X192886588Y-71905447D01*
X192886588Y-71905447D02*
X192886588Y-71762590D01*
X192886588Y-71762590D02*
X192838969Y-71572114D01*
X192838969Y-71572114D02*
X192791350Y-71476876D01*
X192791350Y-71476876D02*
X192696112Y-71381638D01*
X192696112Y-71381638D02*
X192553255Y-71334019D01*
X192553255Y-71334019D02*
X192315160Y-71334019D01*
X193696112Y-71381638D02*
X193600874Y-71334019D01*
X193600874Y-71334019D02*
X193410398Y-71334019D01*
X193410398Y-71334019D02*
X193315160Y-71381638D01*
X193315160Y-71381638D02*
X193267541Y-71476876D01*
X193267541Y-71476876D02*
X193267541Y-71857828D01*
X193267541Y-71857828D02*
X193315160Y-71953066D01*
X193315160Y-71953066D02*
X193410398Y-72000685D01*
X193410398Y-72000685D02*
X193600874Y-72000685D01*
X193600874Y-72000685D02*
X193696112Y-71953066D01*
X193696112Y-71953066D02*
X193743731Y-71857828D01*
X193743731Y-71857828D02*
X193743731Y-71762590D01*
X193743731Y-71762590D02*
X193267541Y-71667352D01*
X194124684Y-71381638D02*
X194219922Y-71334019D01*
X194219922Y-71334019D02*
X194410398Y-71334019D01*
X194410398Y-71334019D02*
X194505636Y-71381638D01*
X194505636Y-71381638D02*
X194553255Y-71476876D01*
X194553255Y-71476876D02*
X194553255Y-71524495D01*
X194553255Y-71524495D02*
X194505636Y-71619733D01*
X194505636Y-71619733D02*
X194410398Y-71667352D01*
X194410398Y-71667352D02*
X194267541Y-71667352D01*
X194267541Y-71667352D02*
X194172303Y-71714971D01*
X194172303Y-71714971D02*
X194124684Y-71810209D01*
X194124684Y-71810209D02*
X194124684Y-71857828D01*
X194124684Y-71857828D02*
X194172303Y-71953066D01*
X194172303Y-71953066D02*
X194267541Y-72000685D01*
X194267541Y-72000685D02*
X194410398Y-72000685D01*
X194410398Y-72000685D02*
X194505636Y-71953066D01*
X194981827Y-71334019D02*
X194981827Y-72000685D01*
X194981827Y-72334019D02*
X194934208Y-72286400D01*
X194934208Y-72286400D02*
X194981827Y-72238780D01*
X194981827Y-72238780D02*
X195029446Y-72286400D01*
X195029446Y-72286400D02*
X194981827Y-72334019D01*
X194981827Y-72334019D02*
X194981827Y-72238780D01*
X195886588Y-72000685D02*
X195886588Y-71191161D01*
X195886588Y-71191161D02*
X195838969Y-71095923D01*
X195838969Y-71095923D02*
X195791350Y-71048304D01*
X195791350Y-71048304D02*
X195696112Y-71000685D01*
X195696112Y-71000685D02*
X195553255Y-71000685D01*
X195553255Y-71000685D02*
X195458017Y-71048304D01*
X195886588Y-71381638D02*
X195791350Y-71334019D01*
X195791350Y-71334019D02*
X195600874Y-71334019D01*
X195600874Y-71334019D02*
X195505636Y-71381638D01*
X195505636Y-71381638D02*
X195458017Y-71429257D01*
X195458017Y-71429257D02*
X195410398Y-71524495D01*
X195410398Y-71524495D02*
X195410398Y-71810209D01*
X195410398Y-71810209D02*
X195458017Y-71905447D01*
X195458017Y-71905447D02*
X195505636Y-71953066D01*
X195505636Y-71953066D02*
X195600874Y-72000685D01*
X195600874Y-72000685D02*
X195791350Y-72000685D01*
X195791350Y-72000685D02*
X195886588Y-71953066D01*
X196362779Y-72000685D02*
X196362779Y-71334019D01*
X196362779Y-71905447D02*
X196410398Y-71953066D01*
X196410398Y-71953066D02*
X196505636Y-72000685D01*
X196505636Y-72000685D02*
X196648493Y-72000685D01*
X196648493Y-72000685D02*
X196743731Y-71953066D01*
X196743731Y-71953066D02*
X196791350Y-71857828D01*
X196791350Y-71857828D02*
X196791350Y-71334019D01*
X197648493Y-71381638D02*
X197553255Y-71334019D01*
X197553255Y-71334019D02*
X197362779Y-71334019D01*
X197362779Y-71334019D02*
X197267541Y-71381638D01*
X197267541Y-71381638D02*
X197219922Y-71476876D01*
X197219922Y-71476876D02*
X197219922Y-71857828D01*
X197219922Y-71857828D02*
X197267541Y-71953066D01*
X197267541Y-71953066D02*
X197362779Y-72000685D01*
X197362779Y-72000685D02*
X197553255Y-72000685D01*
X197553255Y-72000685D02*
X197648493Y-71953066D01*
X197648493Y-71953066D02*
X197696112Y-71857828D01*
X197696112Y-71857828D02*
X197696112Y-71762590D01*
X197696112Y-71762590D02*
X197219922Y-71667352D01*
X198553255Y-71334019D02*
X198553255Y-72334019D01*
X198553255Y-71381638D02*
X198458017Y-71334019D01*
X198458017Y-71334019D02*
X198267541Y-71334019D01*
X198267541Y-71334019D02*
X198172303Y-71381638D01*
X198172303Y-71381638D02*
X198124684Y-71429257D01*
X198124684Y-71429257D02*
X198077065Y-71524495D01*
X198077065Y-71524495D02*
X198077065Y-71810209D01*
X198077065Y-71810209D02*
X198124684Y-71905447D01*
X198124684Y-71905447D02*
X198172303Y-71953066D01*
X198172303Y-71953066D02*
X198267541Y-72000685D01*
X198267541Y-72000685D02*
X198458017Y-72000685D01*
X198458017Y-72000685D02*
X198553255Y-71953066D01*
X199629446Y-71334019D02*
X199629446Y-72000685D01*
X199629446Y-72334019D02*
X199581827Y-72286400D01*
X199581827Y-72286400D02*
X199629446Y-72238780D01*
X199629446Y-72238780D02*
X199677065Y-72286400D01*
X199677065Y-72286400D02*
X199629446Y-72334019D01*
X199629446Y-72334019D02*
X199629446Y-72238780D01*
X200105636Y-72000685D02*
X200105636Y-71334019D01*
X200105636Y-71905447D02*
X200153255Y-71953066D01*
X200153255Y-71953066D02*
X200248493Y-72000685D01*
X200248493Y-72000685D02*
X200391350Y-72000685D01*
X200391350Y-72000685D02*
X200486588Y-71953066D01*
X200486588Y-71953066D02*
X200534207Y-71857828D01*
X200534207Y-71857828D02*
X200534207Y-71334019D01*
X202086588Y-71334019D02*
X201610398Y-71334019D01*
X201610398Y-71334019D02*
X201610398Y-72334019D01*
X202562779Y-71334019D02*
X202467541Y-71381638D01*
X202467541Y-71381638D02*
X202419922Y-71429257D01*
X202419922Y-71429257D02*
X202372303Y-71524495D01*
X202372303Y-71524495D02*
X202372303Y-71810209D01*
X202372303Y-71810209D02*
X202419922Y-71905447D01*
X202419922Y-71905447D02*
X202467541Y-71953066D01*
X202467541Y-71953066D02*
X202562779Y-72000685D01*
X202562779Y-72000685D02*
X202705636Y-72000685D01*
X202705636Y-72000685D02*
X202800874Y-71953066D01*
X202800874Y-71953066D02*
X202848493Y-71905447D01*
X202848493Y-71905447D02*
X202896112Y-71810209D01*
X202896112Y-71810209D02*
X202896112Y-71524495D01*
X202896112Y-71524495D02*
X202848493Y-71429257D01*
X202848493Y-71429257D02*
X202800874Y-71381638D01*
X202800874Y-71381638D02*
X202705636Y-71334019D01*
X202705636Y-71334019D02*
X202562779Y-71334019D01*
X203277065Y-71381638D02*
X203372303Y-71334019D01*
X203372303Y-71334019D02*
X203562779Y-71334019D01*
X203562779Y-71334019D02*
X203658017Y-71381638D01*
X203658017Y-71381638D02*
X203705636Y-71476876D01*
X203705636Y-71476876D02*
X203705636Y-71524495D01*
X203705636Y-71524495D02*
X203658017Y-71619733D01*
X203658017Y-71619733D02*
X203562779Y-71667352D01*
X203562779Y-71667352D02*
X203419922Y-71667352D01*
X203419922Y-71667352D02*
X203324684Y-71714971D01*
X203324684Y-71714971D02*
X203277065Y-71810209D01*
X203277065Y-71810209D02*
X203277065Y-71857828D01*
X203277065Y-71857828D02*
X203324684Y-71953066D01*
X203324684Y-71953066D02*
X203419922Y-72000685D01*
X203419922Y-72000685D02*
X203562779Y-72000685D01*
X203562779Y-72000685D02*
X203658017Y-71953066D01*
X204686589Y-71619733D02*
X205162779Y-71619733D01*
X204591351Y-71334019D02*
X204924684Y-72334019D01*
X204924684Y-72334019D02*
X205258017Y-71334019D01*
X205591351Y-72000685D02*
X205591351Y-71334019D01*
X205591351Y-71905447D02*
X205638970Y-71953066D01*
X205638970Y-71953066D02*
X205734208Y-72000685D01*
X205734208Y-72000685D02*
X205877065Y-72000685D01*
X205877065Y-72000685D02*
X205972303Y-71953066D01*
X205972303Y-71953066D02*
X206019922Y-71857828D01*
X206019922Y-71857828D02*
X206019922Y-71334019D01*
X206924684Y-72000685D02*
X206924684Y-71191161D01*
X206924684Y-71191161D02*
X206877065Y-71095923D01*
X206877065Y-71095923D02*
X206829446Y-71048304D01*
X206829446Y-71048304D02*
X206734208Y-71000685D01*
X206734208Y-71000685D02*
X206591351Y-71000685D01*
X206591351Y-71000685D02*
X206496113Y-71048304D01*
X206924684Y-71381638D02*
X206829446Y-71334019D01*
X206829446Y-71334019D02*
X206638970Y-71334019D01*
X206638970Y-71334019D02*
X206543732Y-71381638D01*
X206543732Y-71381638D02*
X206496113Y-71429257D01*
X206496113Y-71429257D02*
X206448494Y-71524495D01*
X206448494Y-71524495D02*
X206448494Y-71810209D01*
X206448494Y-71810209D02*
X206496113Y-71905447D01*
X206496113Y-71905447D02*
X206543732Y-71953066D01*
X206543732Y-71953066D02*
X206638970Y-72000685D01*
X206638970Y-72000685D02*
X206829446Y-72000685D01*
X206829446Y-72000685D02*
X206924684Y-71953066D01*
X207781827Y-71381638D02*
X207686589Y-71334019D01*
X207686589Y-71334019D02*
X207496113Y-71334019D01*
X207496113Y-71334019D02*
X207400875Y-71381638D01*
X207400875Y-71381638D02*
X207353256Y-71476876D01*
X207353256Y-71476876D02*
X207353256Y-71857828D01*
X207353256Y-71857828D02*
X207400875Y-71953066D01*
X207400875Y-71953066D02*
X207496113Y-72000685D01*
X207496113Y-72000685D02*
X207686589Y-72000685D01*
X207686589Y-72000685D02*
X207781827Y-71953066D01*
X207781827Y-71953066D02*
X207829446Y-71857828D01*
X207829446Y-71857828D02*
X207829446Y-71762590D01*
X207829446Y-71762590D02*
X207353256Y-71667352D01*
X208400875Y-71334019D02*
X208305637Y-71381638D01*
X208305637Y-71381638D02*
X208258018Y-71476876D01*
X208258018Y-71476876D02*
X208258018Y-72334019D01*
X209162780Y-71381638D02*
X209067542Y-71334019D01*
X209067542Y-71334019D02*
X208877066Y-71334019D01*
X208877066Y-71334019D02*
X208781828Y-71381638D01*
X208781828Y-71381638D02*
X208734209Y-71476876D01*
X208734209Y-71476876D02*
X208734209Y-71857828D01*
X208734209Y-71857828D02*
X208781828Y-71953066D01*
X208781828Y-71953066D02*
X208877066Y-72000685D01*
X208877066Y-72000685D02*
X209067542Y-72000685D01*
X209067542Y-72000685D02*
X209162780Y-71953066D01*
X209162780Y-71953066D02*
X209210399Y-71857828D01*
X209210399Y-71857828D02*
X209210399Y-71762590D01*
X209210399Y-71762590D02*
X208734209Y-71667352D01*
X209591352Y-71381638D02*
X209686590Y-71334019D01*
X209686590Y-71334019D02*
X209877066Y-71334019D01*
X209877066Y-71334019D02*
X209972304Y-71381638D01*
X209972304Y-71381638D02*
X210019923Y-71476876D01*
X210019923Y-71476876D02*
X210019923Y-71524495D01*
X210019923Y-71524495D02*
X209972304Y-71619733D01*
X209972304Y-71619733D02*
X209877066Y-71667352D01*
X209877066Y-71667352D02*
X209734209Y-71667352D01*
X209734209Y-71667352D02*
X209638971Y-71714971D01*
X209638971Y-71714971D02*
X209591352Y-71810209D01*
X209591352Y-71810209D02*
X209591352Y-71857828D01*
X209591352Y-71857828D02*
X209638971Y-71953066D01*
X209638971Y-71953066D02*
X209734209Y-72000685D01*
X209734209Y-72000685D02*
X209877066Y-72000685D01*
X209877066Y-72000685D02*
X209972304Y-71953066D01*
X189496113Y-70380685D02*
X189496113Y-69571161D01*
X189496113Y-69571161D02*
X189448494Y-69475923D01*
X189448494Y-69475923D02*
X189400875Y-69428304D01*
X189400875Y-69428304D02*
X189305637Y-69380685D01*
X189305637Y-69380685D02*
X189162780Y-69380685D01*
X189162780Y-69380685D02*
X189067542Y-69428304D01*
X189496113Y-69761638D02*
X189400875Y-69714019D01*
X189400875Y-69714019D02*
X189210399Y-69714019D01*
X189210399Y-69714019D02*
X189115161Y-69761638D01*
X189115161Y-69761638D02*
X189067542Y-69809257D01*
X189067542Y-69809257D02*
X189019923Y-69904495D01*
X189019923Y-69904495D02*
X189019923Y-70190209D01*
X189019923Y-70190209D02*
X189067542Y-70285447D01*
X189067542Y-70285447D02*
X189115161Y-70333066D01*
X189115161Y-70333066D02*
X189210399Y-70380685D01*
X189210399Y-70380685D02*
X189400875Y-70380685D01*
X189400875Y-70380685D02*
X189496113Y-70333066D01*
X189972304Y-69714019D02*
X189972304Y-70380685D01*
X189972304Y-70714019D02*
X189924685Y-70666400D01*
X189924685Y-70666400D02*
X189972304Y-70618780D01*
X189972304Y-70618780D02*
X190019923Y-70666400D01*
X190019923Y-70666400D02*
X189972304Y-70714019D01*
X189972304Y-70714019D02*
X189972304Y-70618780D01*
X190305637Y-70380685D02*
X190686589Y-70380685D01*
X190448494Y-70714019D02*
X190448494Y-69856876D01*
X190448494Y-69856876D02*
X190496113Y-69761638D01*
X190496113Y-69761638D02*
X190591351Y-69714019D01*
X190591351Y-69714019D02*
X190686589Y-69714019D01*
X191019923Y-69714019D02*
X191019923Y-70714019D01*
X191448494Y-69714019D02*
X191448494Y-70237828D01*
X191448494Y-70237828D02*
X191400875Y-70333066D01*
X191400875Y-70333066D02*
X191305637Y-70380685D01*
X191305637Y-70380685D02*
X191162780Y-70380685D01*
X191162780Y-70380685D02*
X191067542Y-70333066D01*
X191067542Y-70333066D02*
X191019923Y-70285447D01*
X192353256Y-70380685D02*
X192353256Y-69714019D01*
X191924685Y-70380685D02*
X191924685Y-69856876D01*
X191924685Y-69856876D02*
X191972304Y-69761638D01*
X191972304Y-69761638D02*
X192067542Y-69714019D01*
X192067542Y-69714019D02*
X192210399Y-69714019D01*
X192210399Y-69714019D02*
X192305637Y-69761638D01*
X192305637Y-69761638D02*
X192353256Y-69809257D01*
X192829447Y-69714019D02*
X192829447Y-70714019D01*
X192829447Y-70333066D02*
X192924685Y-70380685D01*
X192924685Y-70380685D02*
X193115161Y-70380685D01*
X193115161Y-70380685D02*
X193210399Y-70333066D01*
X193210399Y-70333066D02*
X193258018Y-70285447D01*
X193258018Y-70285447D02*
X193305637Y-70190209D01*
X193305637Y-70190209D02*
X193305637Y-69904495D01*
X193305637Y-69904495D02*
X193258018Y-69809257D01*
X193258018Y-69809257D02*
X193210399Y-69761638D01*
X193210399Y-69761638D02*
X193115161Y-69714019D01*
X193115161Y-69714019D02*
X192924685Y-69714019D01*
X192924685Y-69714019D02*
X192829447Y-69761638D01*
X193734209Y-69809257D02*
X193781828Y-69761638D01*
X193781828Y-69761638D02*
X193734209Y-69714019D01*
X193734209Y-69714019D02*
X193686590Y-69761638D01*
X193686590Y-69761638D02*
X193734209Y-69809257D01*
X193734209Y-69809257D02*
X193734209Y-69714019D01*
X194638970Y-69761638D02*
X194543732Y-69714019D01*
X194543732Y-69714019D02*
X194353256Y-69714019D01*
X194353256Y-69714019D02*
X194258018Y-69761638D01*
X194258018Y-69761638D02*
X194210399Y-69809257D01*
X194210399Y-69809257D02*
X194162780Y-69904495D01*
X194162780Y-69904495D02*
X194162780Y-70190209D01*
X194162780Y-70190209D02*
X194210399Y-70285447D01*
X194210399Y-70285447D02*
X194258018Y-70333066D01*
X194258018Y-70333066D02*
X194353256Y-70380685D01*
X194353256Y-70380685D02*
X194543732Y-70380685D01*
X194543732Y-70380685D02*
X194638970Y-70333066D01*
X195210399Y-69714019D02*
X195115161Y-69761638D01*
X195115161Y-69761638D02*
X195067542Y-69809257D01*
X195067542Y-69809257D02*
X195019923Y-69904495D01*
X195019923Y-69904495D02*
X195019923Y-70190209D01*
X195019923Y-70190209D02*
X195067542Y-70285447D01*
X195067542Y-70285447D02*
X195115161Y-70333066D01*
X195115161Y-70333066D02*
X195210399Y-70380685D01*
X195210399Y-70380685D02*
X195353256Y-70380685D01*
X195353256Y-70380685D02*
X195448494Y-70333066D01*
X195448494Y-70333066D02*
X195496113Y-70285447D01*
X195496113Y-70285447D02*
X195543732Y-70190209D01*
X195543732Y-70190209D02*
X195543732Y-69904495D01*
X195543732Y-69904495D02*
X195496113Y-69809257D01*
X195496113Y-69809257D02*
X195448494Y-69761638D01*
X195448494Y-69761638D02*
X195353256Y-69714019D01*
X195353256Y-69714019D02*
X195210399Y-69714019D01*
X195972304Y-69714019D02*
X195972304Y-70380685D01*
X195972304Y-70285447D02*
X196019923Y-70333066D01*
X196019923Y-70333066D02*
X196115161Y-70380685D01*
X196115161Y-70380685D02*
X196258018Y-70380685D01*
X196258018Y-70380685D02*
X196353256Y-70333066D01*
X196353256Y-70333066D02*
X196400875Y-70237828D01*
X196400875Y-70237828D02*
X196400875Y-69714019D01*
X196400875Y-70237828D02*
X196448494Y-70333066D01*
X196448494Y-70333066D02*
X196543732Y-70380685D01*
X196543732Y-70380685D02*
X196686589Y-70380685D01*
X196686589Y-70380685D02*
X196781828Y-70333066D01*
X196781828Y-70333066D02*
X196829447Y-70237828D01*
X196829447Y-70237828D02*
X196829447Y-69714019D01*
X198019922Y-70761638D02*
X197162780Y-69475923D01*
X198353256Y-69714019D02*
X198353256Y-70714019D01*
X198448494Y-70094971D02*
X198734208Y-69714019D01*
X198734208Y-70380685D02*
X198353256Y-69999733D01*
X199115161Y-69761638D02*
X199210399Y-69714019D01*
X199210399Y-69714019D02*
X199400875Y-69714019D01*
X199400875Y-69714019D02*
X199496113Y-69761638D01*
X199496113Y-69761638D02*
X199543732Y-69856876D01*
X199543732Y-69856876D02*
X199543732Y-69904495D01*
X199543732Y-69904495D02*
X199496113Y-69999733D01*
X199496113Y-69999733D02*
X199400875Y-70047352D01*
X199400875Y-70047352D02*
X199258018Y-70047352D01*
X199258018Y-70047352D02*
X199162780Y-70094971D01*
X199162780Y-70094971D02*
X199115161Y-70190209D01*
X199115161Y-70190209D02*
X199115161Y-70237828D01*
X199115161Y-70237828D02*
X199162780Y-70333066D01*
X199162780Y-70333066D02*
X199258018Y-70380685D01*
X199258018Y-70380685D02*
X199400875Y-70380685D01*
X199400875Y-70380685D02*
X199496113Y-70333066D01*
X199972304Y-69714019D02*
X199972304Y-70380685D01*
X199972304Y-70285447D02*
X200019923Y-70333066D01*
X200019923Y-70333066D02*
X200115161Y-70380685D01*
X200115161Y-70380685D02*
X200258018Y-70380685D01*
X200258018Y-70380685D02*
X200353256Y-70333066D01*
X200353256Y-70333066D02*
X200400875Y-70237828D01*
X200400875Y-70237828D02*
X200400875Y-69714019D01*
X200400875Y-70237828D02*
X200448494Y-70333066D01*
X200448494Y-70333066D02*
X200543732Y-70380685D01*
X200543732Y-70380685D02*
X200686589Y-70380685D01*
X200686589Y-70380685D02*
X200781828Y-70333066D01*
X200781828Y-70333066D02*
X200829447Y-70237828D01*
X200829447Y-70237828D02*
X200829447Y-69714019D01*
X201448494Y-69714019D02*
X201353256Y-69761638D01*
X201353256Y-69761638D02*
X201305637Y-69809257D01*
X201305637Y-69809257D02*
X201258018Y-69904495D01*
X201258018Y-69904495D02*
X201258018Y-70190209D01*
X201258018Y-70190209D02*
X201305637Y-70285447D01*
X201305637Y-70285447D02*
X201353256Y-70333066D01*
X201353256Y-70333066D02*
X201448494Y-70380685D01*
X201448494Y-70380685D02*
X201591351Y-70380685D01*
X201591351Y-70380685D02*
X201686589Y-70333066D01*
X201686589Y-70333066D02*
X201734208Y-70285447D01*
X201734208Y-70285447D02*
X201781827Y-70190209D01*
X201781827Y-70190209D02*
X201781827Y-69904495D01*
X201781827Y-69904495D02*
X201734208Y-69809257D01*
X201734208Y-69809257D02*
X201686589Y-69761638D01*
X201686589Y-69761638D02*
X201591351Y-69714019D01*
X201591351Y-69714019D02*
X201448494Y-69714019D01*
X202353256Y-69714019D02*
X202258018Y-69761638D01*
X202258018Y-69761638D02*
X202210399Y-69856876D01*
X202210399Y-69856876D02*
X202210399Y-70714019D01*
X203162780Y-69714019D02*
X203162780Y-70237828D01*
X203162780Y-70237828D02*
X203115161Y-70333066D01*
X203115161Y-70333066D02*
X203019923Y-70380685D01*
X203019923Y-70380685D02*
X202829447Y-70380685D01*
X202829447Y-70380685D02*
X202734209Y-70333066D01*
X203162780Y-69761638D02*
X203067542Y-69714019D01*
X203067542Y-69714019D02*
X202829447Y-69714019D01*
X202829447Y-69714019D02*
X202734209Y-69761638D01*
X202734209Y-69761638D02*
X202686590Y-69856876D01*
X202686590Y-69856876D02*
X202686590Y-69952114D01*
X202686590Y-69952114D02*
X202734209Y-70047352D01*
X202734209Y-70047352D02*
X202829447Y-70094971D01*
X202829447Y-70094971D02*
X203067542Y-70094971D01*
X203067542Y-70094971D02*
X203162780Y-70142590D01*
X204353256Y-70761638D02*
X203496114Y-69475923D01*
X204686590Y-69714019D02*
X204686590Y-70714019D01*
X204686590Y-70714019D02*
X205067542Y-70714019D01*
X205067542Y-70714019D02*
X205162780Y-70666400D01*
X205162780Y-70666400D02*
X205210399Y-70618780D01*
X205210399Y-70618780D02*
X205258018Y-70523542D01*
X205258018Y-70523542D02*
X205258018Y-70380685D01*
X205258018Y-70380685D02*
X205210399Y-70285447D01*
X205210399Y-70285447D02*
X205162780Y-70237828D01*
X205162780Y-70237828D02*
X205067542Y-70190209D01*
X205067542Y-70190209D02*
X204686590Y-70190209D01*
X205686590Y-69714019D02*
X205686590Y-70380685D01*
X205686590Y-70190209D02*
X205734209Y-70285447D01*
X205734209Y-70285447D02*
X205781828Y-70333066D01*
X205781828Y-70333066D02*
X205877066Y-70380685D01*
X205877066Y-70380685D02*
X205972304Y-70380685D01*
X206305638Y-69714019D02*
X206305638Y-70380685D01*
X206305638Y-70714019D02*
X206258019Y-70666400D01*
X206258019Y-70666400D02*
X206305638Y-70618780D01*
X206305638Y-70618780D02*
X206353257Y-70666400D01*
X206353257Y-70666400D02*
X206305638Y-70714019D01*
X206305638Y-70714019D02*
X206305638Y-70618780D01*
X207210399Y-70380685D02*
X207210399Y-69714019D01*
X206781828Y-70380685D02*
X206781828Y-69856876D01*
X206781828Y-69856876D02*
X206829447Y-69761638D01*
X206829447Y-69761638D02*
X206924685Y-69714019D01*
X206924685Y-69714019D02*
X207067542Y-69714019D01*
X207067542Y-69714019D02*
X207162780Y-69761638D01*
X207162780Y-69761638D02*
X207210399Y-69809257D01*
X207638971Y-69761638D02*
X207734209Y-69714019D01*
X207734209Y-69714019D02*
X207924685Y-69714019D01*
X207924685Y-69714019D02*
X208019923Y-69761638D01*
X208019923Y-69761638D02*
X208067542Y-69856876D01*
X208067542Y-69856876D02*
X208067542Y-69904495D01*
X208067542Y-69904495D02*
X208019923Y-69999733D01*
X208019923Y-69999733D02*
X207924685Y-70047352D01*
X207924685Y-70047352D02*
X207781828Y-70047352D01*
X207781828Y-70047352D02*
X207686590Y-70094971D01*
X207686590Y-70094971D02*
X207638971Y-70190209D01*
X207638971Y-70190209D02*
X207638971Y-70237828D01*
X207638971Y-70237828D02*
X207686590Y-70333066D01*
X207686590Y-70333066D02*
X207781828Y-70380685D01*
X207781828Y-70380685D02*
X207924685Y-70380685D01*
X207924685Y-70380685D02*
X208019923Y-70333066D01*
X209019923Y-70666400D02*
X208924685Y-70714019D01*
X208924685Y-70714019D02*
X208781828Y-70714019D01*
X208781828Y-70714019D02*
X208638971Y-70666400D01*
X208638971Y-70666400D02*
X208543733Y-70571161D01*
X208543733Y-70571161D02*
X208496114Y-70475923D01*
X208496114Y-70475923D02*
X208448495Y-70285447D01*
X208448495Y-70285447D02*
X208448495Y-70142590D01*
X208448495Y-70142590D02*
X208496114Y-69952114D01*
X208496114Y-69952114D02*
X208543733Y-69856876D01*
X208543733Y-69856876D02*
X208638971Y-69761638D01*
X208638971Y-69761638D02*
X208781828Y-69714019D01*
X208781828Y-69714019D02*
X208877066Y-69714019D01*
X208877066Y-69714019D02*
X209019923Y-69761638D01*
X209019923Y-69761638D02*
X209067542Y-69809257D01*
X209067542Y-69809257D02*
X209067542Y-70142590D01*
X209067542Y-70142590D02*
X208877066Y-70142590D01*
X209448495Y-70618780D02*
X209496114Y-70666400D01*
X209496114Y-70666400D02*
X209591352Y-70714019D01*
X209591352Y-70714019D02*
X209829447Y-70714019D01*
X209829447Y-70714019D02*
X209924685Y-70666400D01*
X209924685Y-70666400D02*
X209972304Y-70618780D01*
X209972304Y-70618780D02*
X210019923Y-70523542D01*
X210019923Y-70523542D02*
X210019923Y-70428304D01*
X210019923Y-70428304D02*
X209972304Y-70285447D01*
X209972304Y-70285447D02*
X209400876Y-69714019D01*
X209400876Y-69714019D02*
X210019923Y-69714019D01*
X149319761Y-69042857D02*
X149367380Y-69185714D01*
X149367380Y-69185714D02*
X149367380Y-69423809D01*
X149367380Y-69423809D02*
X149319761Y-69519047D01*
X149319761Y-69519047D02*
X149272142Y-69566666D01*
X149272142Y-69566666D02*
X149176904Y-69614285D01*
X149176904Y-69614285D02*
X149081666Y-69614285D01*
X149081666Y-69614285D02*
X148986428Y-69566666D01*
X148986428Y-69566666D02*
X148938809Y-69519047D01*
X148938809Y-69519047D02*
X148891190Y-69423809D01*
X148891190Y-69423809D02*
X148843571Y-69233333D01*
X148843571Y-69233333D02*
X148795952Y-69138095D01*
X148795952Y-69138095D02*
X148748333Y-69090476D01*
X148748333Y-69090476D02*
X148653095Y-69042857D01*
X148653095Y-69042857D02*
X148557857Y-69042857D01*
X148557857Y-69042857D02*
X148462619Y-69090476D01*
X148462619Y-69090476D02*
X148415000Y-69138095D01*
X148415000Y-69138095D02*
X148367380Y-69233333D01*
X148367380Y-69233333D02*
X148367380Y-69471428D01*
X148367380Y-69471428D02*
X148415000Y-69614285D01*
X148367380Y-69947619D02*
X149367380Y-70185714D01*
X149367380Y-70185714D02*
X148653095Y-70376190D01*
X148653095Y-70376190D02*
X149367380Y-70566666D01*
X149367380Y-70566666D02*
X148367380Y-70804762D01*
X149367380Y-71185714D02*
X148367380Y-71185714D01*
X148367380Y-71185714D02*
X148367380Y-71423809D01*
X148367380Y-71423809D02*
X148415000Y-71566666D01*
X148415000Y-71566666D02*
X148510238Y-71661904D01*
X148510238Y-71661904D02*
X148605476Y-71709523D01*
X148605476Y-71709523D02*
X148795952Y-71757142D01*
X148795952Y-71757142D02*
X148938809Y-71757142D01*
X148938809Y-71757142D02*
X149129285Y-71709523D01*
X149129285Y-71709523D02*
X149224523Y-71661904D01*
X149224523Y-71661904D02*
X149319761Y-71566666D01*
X149319761Y-71566666D02*
X149367380Y-71423809D01*
X149367380Y-71423809D02*
X149367380Y-71185714D01*
D13*
X159354381Y-72352773D02*
X159354381Y-73602773D01*
X159354381Y-73602773D02*
X159830571Y-73602773D01*
X159830571Y-73602773D02*
X159949619Y-73543250D01*
X159949619Y-73543250D02*
X160009142Y-73483726D01*
X160009142Y-73483726D02*
X160068666Y-73364678D01*
X160068666Y-73364678D02*
X160068666Y-73186107D01*
X160068666Y-73186107D02*
X160009142Y-73067059D01*
X160009142Y-73067059D02*
X159949619Y-73007535D01*
X159949619Y-73007535D02*
X159830571Y-72948011D01*
X159830571Y-72948011D02*
X159354381Y-72948011D01*
X160604381Y-72352773D02*
X160604381Y-73186107D01*
X160604381Y-72948011D02*
X160663904Y-73067059D01*
X160663904Y-73067059D02*
X160723428Y-73126583D01*
X160723428Y-73126583D02*
X160842476Y-73186107D01*
X160842476Y-73186107D02*
X160961523Y-73186107D01*
X161378191Y-72352773D02*
X161378191Y-73186107D01*
X161378191Y-73602773D02*
X161318667Y-73543250D01*
X161318667Y-73543250D02*
X161378191Y-73483726D01*
X161378191Y-73483726D02*
X161437714Y-73543250D01*
X161437714Y-73543250D02*
X161378191Y-73602773D01*
X161378191Y-73602773D02*
X161378191Y-73483726D01*
X162509143Y-73186107D02*
X162509143Y-72352773D01*
X161973429Y-73186107D02*
X161973429Y-72531345D01*
X161973429Y-72531345D02*
X162032952Y-72412297D01*
X162032952Y-72412297D02*
X162152000Y-72352773D01*
X162152000Y-72352773D02*
X162330571Y-72352773D01*
X162330571Y-72352773D02*
X162449619Y-72412297D01*
X162449619Y-72412297D02*
X162509143Y-72471821D01*
X163044857Y-72412297D02*
X163163904Y-72352773D01*
X163163904Y-72352773D02*
X163402000Y-72352773D01*
X163402000Y-72352773D02*
X163521047Y-72412297D01*
X163521047Y-72412297D02*
X163580571Y-72531345D01*
X163580571Y-72531345D02*
X163580571Y-72590869D01*
X163580571Y-72590869D02*
X163521047Y-72709916D01*
X163521047Y-72709916D02*
X163402000Y-72769440D01*
X163402000Y-72769440D02*
X163223428Y-72769440D01*
X163223428Y-72769440D02*
X163104381Y-72828964D01*
X163104381Y-72828964D02*
X163044857Y-72948011D01*
X163044857Y-72948011D02*
X163044857Y-73007535D01*
X163044857Y-73007535D02*
X163104381Y-73126583D01*
X163104381Y-73126583D02*
X163223428Y-73186107D01*
X163223428Y-73186107D02*
X163402000Y-73186107D01*
X163402000Y-73186107D02*
X163521047Y-73126583D01*
X165521047Y-73543250D02*
X165402000Y-73602773D01*
X165402000Y-73602773D02*
X165223428Y-73602773D01*
X165223428Y-73602773D02*
X165044857Y-73543250D01*
X165044857Y-73543250D02*
X164925809Y-73424202D01*
X164925809Y-73424202D02*
X164866286Y-73305154D01*
X164866286Y-73305154D02*
X164806762Y-73067059D01*
X164806762Y-73067059D02*
X164806762Y-72888488D01*
X164806762Y-72888488D02*
X164866286Y-72650392D01*
X164866286Y-72650392D02*
X164925809Y-72531345D01*
X164925809Y-72531345D02*
X165044857Y-72412297D01*
X165044857Y-72412297D02*
X165223428Y-72352773D01*
X165223428Y-72352773D02*
X165342476Y-72352773D01*
X165342476Y-72352773D02*
X165521047Y-72412297D01*
X165521047Y-72412297D02*
X165580571Y-72471821D01*
X165580571Y-72471821D02*
X165580571Y-72888488D01*
X165580571Y-72888488D02*
X165342476Y-72888488D01*
X166056762Y-73483726D02*
X166116286Y-73543250D01*
X166116286Y-73543250D02*
X166235333Y-73602773D01*
X166235333Y-73602773D02*
X166532952Y-73602773D01*
X166532952Y-73602773D02*
X166652000Y-73543250D01*
X166652000Y-73543250D02*
X166711524Y-73483726D01*
X166711524Y-73483726D02*
X166771047Y-73364678D01*
X166771047Y-73364678D02*
X166771047Y-73245630D01*
X166771047Y-73245630D02*
X166711524Y-73067059D01*
X166711524Y-73067059D02*
X165997238Y-72352773D01*
X165997238Y-72352773D02*
X166771047Y-72352773D01*
X168056762Y-72352773D02*
X168056762Y-73186107D01*
X168056762Y-72948011D02*
X168116285Y-73067059D01*
X168116285Y-73067059D02*
X168175809Y-73126583D01*
X168175809Y-73126583D02*
X168294857Y-73186107D01*
X168294857Y-73186107D02*
X168413904Y-73186107D01*
X169306762Y-72412297D02*
X169187714Y-72352773D01*
X169187714Y-72352773D02*
X168949619Y-72352773D01*
X168949619Y-72352773D02*
X168830572Y-72412297D01*
X168830572Y-72412297D02*
X168771048Y-72531345D01*
X168771048Y-72531345D02*
X168771048Y-73007535D01*
X168771048Y-73007535D02*
X168830572Y-73126583D01*
X168830572Y-73126583D02*
X168949619Y-73186107D01*
X168949619Y-73186107D02*
X169187714Y-73186107D01*
X169187714Y-73186107D02*
X169306762Y-73126583D01*
X169306762Y-73126583D02*
X169366286Y-73007535D01*
X169366286Y-73007535D02*
X169366286Y-72888488D01*
X169366286Y-72888488D02*
X168771048Y-72769440D01*
X169782953Y-73186107D02*
X170080572Y-72352773D01*
X170080572Y-72352773D02*
X170378191Y-73186107D01*
X172199620Y-73602773D02*
X171604382Y-73602773D01*
X171604382Y-73602773D02*
X171544858Y-73007535D01*
X171544858Y-73007535D02*
X171604382Y-73067059D01*
X171604382Y-73067059D02*
X171723429Y-73126583D01*
X171723429Y-73126583D02*
X172021048Y-73126583D01*
X172021048Y-73126583D02*
X172140096Y-73067059D01*
X172140096Y-73067059D02*
X172199620Y-73007535D01*
X172199620Y-73007535D02*
X172259143Y-72888488D01*
X172259143Y-72888488D02*
X172259143Y-72590869D01*
X172259143Y-72590869D02*
X172199620Y-72471821D01*
X172199620Y-72471821D02*
X172140096Y-72412297D01*
X172140096Y-72412297D02*
X172021048Y-72352773D01*
X172021048Y-72352773D02*
X171723429Y-72352773D01*
X171723429Y-72352773D02*
X171604382Y-72412297D01*
X171604382Y-72412297D02*
X171544858Y-72471821D01*
X161669858Y-71458726D02*
X161729382Y-71518250D01*
X161729382Y-71518250D02*
X161848429Y-71577773D01*
X161848429Y-71577773D02*
X162146048Y-71577773D01*
X162146048Y-71577773D02*
X162265096Y-71518250D01*
X162265096Y-71518250D02*
X162324620Y-71458726D01*
X162324620Y-71458726D02*
X162384143Y-71339678D01*
X162384143Y-71339678D02*
X162384143Y-71220630D01*
X162384143Y-71220630D02*
X162324620Y-71042059D01*
X162324620Y-71042059D02*
X161610334Y-70327773D01*
X161610334Y-70327773D02*
X162384143Y-70327773D01*
X163157953Y-71577773D02*
X163277000Y-71577773D01*
X163277000Y-71577773D02*
X163396048Y-71518250D01*
X163396048Y-71518250D02*
X163455572Y-71458726D01*
X163455572Y-71458726D02*
X163515096Y-71339678D01*
X163515096Y-71339678D02*
X163574619Y-71101583D01*
X163574619Y-71101583D02*
X163574619Y-70803964D01*
X163574619Y-70803964D02*
X163515096Y-70565869D01*
X163515096Y-70565869D02*
X163455572Y-70446821D01*
X163455572Y-70446821D02*
X163396048Y-70387297D01*
X163396048Y-70387297D02*
X163277000Y-70327773D01*
X163277000Y-70327773D02*
X163157953Y-70327773D01*
X163157953Y-70327773D02*
X163038905Y-70387297D01*
X163038905Y-70387297D02*
X162979381Y-70446821D01*
X162979381Y-70446821D02*
X162919858Y-70565869D01*
X162919858Y-70565869D02*
X162860334Y-70803964D01*
X162860334Y-70803964D02*
X162860334Y-71101583D01*
X162860334Y-71101583D02*
X162919858Y-71339678D01*
X162919858Y-71339678D02*
X162979381Y-71458726D01*
X162979381Y-71458726D02*
X163038905Y-71518250D01*
X163038905Y-71518250D02*
X163157953Y-71577773D01*
X164050810Y-71458726D02*
X164110334Y-71518250D01*
X164110334Y-71518250D02*
X164229381Y-71577773D01*
X164229381Y-71577773D02*
X164527000Y-71577773D01*
X164527000Y-71577773D02*
X164646048Y-71518250D01*
X164646048Y-71518250D02*
X164705572Y-71458726D01*
X164705572Y-71458726D02*
X164765095Y-71339678D01*
X164765095Y-71339678D02*
X164765095Y-71220630D01*
X164765095Y-71220630D02*
X164705572Y-71042059D01*
X164705572Y-71042059D02*
X163991286Y-70327773D01*
X163991286Y-70327773D02*
X164765095Y-70327773D01*
X165181762Y-71577773D02*
X165955571Y-71577773D01*
X165955571Y-71577773D02*
X165538905Y-71101583D01*
X165538905Y-71101583D02*
X165717476Y-71101583D01*
X165717476Y-71101583D02*
X165836524Y-71042059D01*
X165836524Y-71042059D02*
X165896048Y-70982535D01*
X165896048Y-70982535D02*
X165955571Y-70863488D01*
X165955571Y-70863488D02*
X165955571Y-70565869D01*
X165955571Y-70565869D02*
X165896048Y-70446821D01*
X165896048Y-70446821D02*
X165836524Y-70387297D01*
X165836524Y-70387297D02*
X165717476Y-70327773D01*
X165717476Y-70327773D02*
X165360333Y-70327773D01*
X165360333Y-70327773D02*
X165241286Y-70387297D01*
X165241286Y-70387297D02*
X165181762Y-70446821D01*
X166491286Y-70803964D02*
X167443667Y-70803964D01*
X168277000Y-71577773D02*
X168396047Y-71577773D01*
X168396047Y-71577773D02*
X168515095Y-71518250D01*
X168515095Y-71518250D02*
X168574619Y-71458726D01*
X168574619Y-71458726D02*
X168634143Y-71339678D01*
X168634143Y-71339678D02*
X168693666Y-71101583D01*
X168693666Y-71101583D02*
X168693666Y-70803964D01*
X168693666Y-70803964D02*
X168634143Y-70565869D01*
X168634143Y-70565869D02*
X168574619Y-70446821D01*
X168574619Y-70446821D02*
X168515095Y-70387297D01*
X168515095Y-70387297D02*
X168396047Y-70327773D01*
X168396047Y-70327773D02*
X168277000Y-70327773D01*
X168277000Y-70327773D02*
X168157952Y-70387297D01*
X168157952Y-70387297D02*
X168098428Y-70446821D01*
X168098428Y-70446821D02*
X168038905Y-70565869D01*
X168038905Y-70565869D02*
X167979381Y-70803964D01*
X167979381Y-70803964D02*
X167979381Y-71101583D01*
X167979381Y-71101583D02*
X168038905Y-71339678D01*
X168038905Y-71339678D02*
X168098428Y-71458726D01*
X168098428Y-71458726D02*
X168157952Y-71518250D01*
X168157952Y-71518250D02*
X168277000Y-71577773D01*
X169169857Y-71458726D02*
X169229381Y-71518250D01*
X169229381Y-71518250D02*
X169348428Y-71577773D01*
X169348428Y-71577773D02*
X169646047Y-71577773D01*
X169646047Y-71577773D02*
X169765095Y-71518250D01*
X169765095Y-71518250D02*
X169824619Y-71458726D01*
X169824619Y-71458726D02*
X169884142Y-71339678D01*
X169884142Y-71339678D02*
X169884142Y-71220630D01*
X169884142Y-71220630D02*
X169824619Y-71042059D01*
X169824619Y-71042059D02*
X169110333Y-70327773D01*
X169110333Y-70327773D02*
X169884142Y-70327773D01*
D12*
%TO.C,C30*%
X130164642Y-120873857D02*
X130117023Y-120826238D01*
X130117023Y-120826238D02*
X129974166Y-120778619D01*
X129974166Y-120778619D02*
X129878928Y-120778619D01*
X129878928Y-120778619D02*
X129736071Y-120826238D01*
X129736071Y-120826238D02*
X129640833Y-120921476D01*
X129640833Y-120921476D02*
X129593214Y-121016714D01*
X129593214Y-121016714D02*
X129545595Y-121207190D01*
X129545595Y-121207190D02*
X129545595Y-121350047D01*
X129545595Y-121350047D02*
X129593214Y-121540523D01*
X129593214Y-121540523D02*
X129640833Y-121635761D01*
X129640833Y-121635761D02*
X129736071Y-121731000D01*
X129736071Y-121731000D02*
X129878928Y-121778619D01*
X129878928Y-121778619D02*
X129974166Y-121778619D01*
X129974166Y-121778619D02*
X130117023Y-121731000D01*
X130117023Y-121731000D02*
X130164642Y-121683380D01*
X130497976Y-121778619D02*
X131117023Y-121778619D01*
X131117023Y-121778619D02*
X130783690Y-121397666D01*
X130783690Y-121397666D02*
X130926547Y-121397666D01*
X130926547Y-121397666D02*
X131021785Y-121350047D01*
X131021785Y-121350047D02*
X131069404Y-121302428D01*
X131069404Y-121302428D02*
X131117023Y-121207190D01*
X131117023Y-121207190D02*
X131117023Y-120969095D01*
X131117023Y-120969095D02*
X131069404Y-120873857D01*
X131069404Y-120873857D02*
X131021785Y-120826238D01*
X131021785Y-120826238D02*
X130926547Y-120778619D01*
X130926547Y-120778619D02*
X130640833Y-120778619D01*
X130640833Y-120778619D02*
X130545595Y-120826238D01*
X130545595Y-120826238D02*
X130497976Y-120873857D01*
X131736071Y-121778619D02*
X131831309Y-121778619D01*
X131831309Y-121778619D02*
X131926547Y-121731000D01*
X131926547Y-121731000D02*
X131974166Y-121683380D01*
X131974166Y-121683380D02*
X132021785Y-121588142D01*
X132021785Y-121588142D02*
X132069404Y-121397666D01*
X132069404Y-121397666D02*
X132069404Y-121159571D01*
X132069404Y-121159571D02*
X132021785Y-120969095D01*
X132021785Y-120969095D02*
X131974166Y-120873857D01*
X131974166Y-120873857D02*
X131926547Y-120826238D01*
X131926547Y-120826238D02*
X131831309Y-120778619D01*
X131831309Y-120778619D02*
X131736071Y-120778619D01*
X131736071Y-120778619D02*
X131640833Y-120826238D01*
X131640833Y-120826238D02*
X131593214Y-120873857D01*
X131593214Y-120873857D02*
X131545595Y-120969095D01*
X131545595Y-120969095D02*
X131497976Y-121159571D01*
X131497976Y-121159571D02*
X131497976Y-121397666D01*
X131497976Y-121397666D02*
X131545595Y-121588142D01*
X131545595Y-121588142D02*
X131593214Y-121683380D01*
X131593214Y-121683380D02*
X131640833Y-121731000D01*
X131640833Y-121731000D02*
X131736071Y-121778619D01*
%TO.C,J3*%
X92201389Y-85563072D02*
X93203020Y-85563072D01*
X93203020Y-85563072D02*
X93403346Y-85496296D01*
X93403346Y-85496296D02*
X93536897Y-85362746D01*
X93536897Y-85362746D02*
X93603672Y-85162419D01*
X93603672Y-85162419D02*
X93603672Y-85028869D01*
X92201389Y-86097275D02*
X92201389Y-86965355D01*
X92201389Y-86965355D02*
X92735592Y-86497927D01*
X92735592Y-86497927D02*
X92735592Y-86698253D01*
X92735592Y-86698253D02*
X92802368Y-86831804D01*
X92802368Y-86831804D02*
X92869143Y-86898579D01*
X92869143Y-86898579D02*
X93002694Y-86965355D01*
X93002694Y-86965355D02*
X93336571Y-86965355D01*
X93336571Y-86965355D02*
X93470121Y-86898579D01*
X93470121Y-86898579D02*
X93536897Y-86831804D01*
X93536897Y-86831804D02*
X93603672Y-86698253D01*
X93603672Y-86698253D02*
X93603672Y-86297601D01*
X93603672Y-86297601D02*
X93536897Y-86164050D01*
X93536897Y-86164050D02*
X93470121Y-86097275D01*
%TO.C,J2*%
X152021666Y-77832119D02*
X152021666Y-77117833D01*
X152021666Y-77117833D02*
X151974047Y-76974976D01*
X151974047Y-76974976D02*
X151878809Y-76879738D01*
X151878809Y-76879738D02*
X151735952Y-76832119D01*
X151735952Y-76832119D02*
X151640714Y-76832119D01*
X152450238Y-77736880D02*
X152497857Y-77784500D01*
X152497857Y-77784500D02*
X152593095Y-77832119D01*
X152593095Y-77832119D02*
X152831190Y-77832119D01*
X152831190Y-77832119D02*
X152926428Y-77784500D01*
X152926428Y-77784500D02*
X152974047Y-77736880D01*
X152974047Y-77736880D02*
X153021666Y-77641642D01*
X153021666Y-77641642D02*
X153021666Y-77546404D01*
X153021666Y-77546404D02*
X152974047Y-77403547D01*
X152974047Y-77403547D02*
X152402619Y-76832119D01*
X152402619Y-76832119D02*
X153021666Y-76832119D01*
%TO.C,J4*%
X201088679Y-107291252D02*
X202088854Y-107291252D01*
X202088854Y-107291252D02*
X202288888Y-107224573D01*
X202288888Y-107224573D02*
X202422245Y-107091217D01*
X202422245Y-107091217D02*
X202488923Y-106891182D01*
X202488923Y-106891182D02*
X202488923Y-106757825D01*
X201555427Y-108558140D02*
X202488923Y-108558140D01*
X201022001Y-108224748D02*
X202022175Y-107891357D01*
X202022175Y-107891357D02*
X202022175Y-108758174D01*
%TO.C,J5*%
X143167380Y-69866666D02*
X143881666Y-69866666D01*
X143881666Y-69866666D02*
X144024523Y-69819047D01*
X144024523Y-69819047D02*
X144119761Y-69723809D01*
X144119761Y-69723809D02*
X144167380Y-69580952D01*
X144167380Y-69580952D02*
X144167380Y-69485714D01*
X143167380Y-70819047D02*
X143167380Y-70342857D01*
X143167380Y-70342857D02*
X143643571Y-70295238D01*
X143643571Y-70295238D02*
X143595952Y-70342857D01*
X143595952Y-70342857D02*
X143548333Y-70438095D01*
X143548333Y-70438095D02*
X143548333Y-70676190D01*
X143548333Y-70676190D02*
X143595952Y-70771428D01*
X143595952Y-70771428D02*
X143643571Y-70819047D01*
X143643571Y-70819047D02*
X143738809Y-70866666D01*
X143738809Y-70866666D02*
X143976904Y-70866666D01*
X143976904Y-70866666D02*
X144072142Y-70819047D01*
X144072142Y-70819047D02*
X144119761Y-70771428D01*
X144119761Y-70771428D02*
X144167380Y-70676190D01*
X144167380Y-70676190D02*
X144167380Y-70438095D01*
X144167380Y-70438095D02*
X144119761Y-70342857D01*
X144119761Y-70342857D02*
X144072142Y-70295238D01*
%TO.C,TP6*%
X168979095Y-94116119D02*
X169550523Y-94116119D01*
X169264809Y-93116119D02*
X169264809Y-94116119D01*
X169883857Y-93116119D02*
X169883857Y-94116119D01*
X169883857Y-94116119D02*
X170264809Y-94116119D01*
X170264809Y-94116119D02*
X170360047Y-94068500D01*
X170360047Y-94068500D02*
X170407666Y-94020880D01*
X170407666Y-94020880D02*
X170455285Y-93925642D01*
X170455285Y-93925642D02*
X170455285Y-93782785D01*
X170455285Y-93782785D02*
X170407666Y-93687547D01*
X170407666Y-93687547D02*
X170360047Y-93639928D01*
X170360047Y-93639928D02*
X170264809Y-93592309D01*
X170264809Y-93592309D02*
X169883857Y-93592309D01*
X171312428Y-94116119D02*
X171121952Y-94116119D01*
X171121952Y-94116119D02*
X171026714Y-94068500D01*
X171026714Y-94068500D02*
X170979095Y-94020880D01*
X170979095Y-94020880D02*
X170883857Y-93878023D01*
X170883857Y-93878023D02*
X170836238Y-93687547D01*
X170836238Y-93687547D02*
X170836238Y-93306595D01*
X170836238Y-93306595D02*
X170883857Y-93211357D01*
X170883857Y-93211357D02*
X170931476Y-93163738D01*
X170931476Y-93163738D02*
X171026714Y-93116119D01*
X171026714Y-93116119D02*
X171217190Y-93116119D01*
X171217190Y-93116119D02*
X171312428Y-93163738D01*
X171312428Y-93163738D02*
X171360047Y-93211357D01*
X171360047Y-93211357D02*
X171407666Y-93306595D01*
X171407666Y-93306595D02*
X171407666Y-93544690D01*
X171407666Y-93544690D02*
X171360047Y-93639928D01*
X171360047Y-93639928D02*
X171312428Y-93687547D01*
X171312428Y-93687547D02*
X171217190Y-93735166D01*
X171217190Y-93735166D02*
X171026714Y-93735166D01*
X171026714Y-93735166D02*
X170931476Y-93687547D01*
X170931476Y-93687547D02*
X170883857Y-93639928D01*
X170883857Y-93639928D02*
X170836238Y-93544690D01*
%TO.C,TP3*%
X155161095Y-82004119D02*
X155732523Y-82004119D01*
X155446809Y-81004119D02*
X155446809Y-82004119D01*
X156065857Y-81004119D02*
X156065857Y-82004119D01*
X156065857Y-82004119D02*
X156446809Y-82004119D01*
X156446809Y-82004119D02*
X156542047Y-81956500D01*
X156542047Y-81956500D02*
X156589666Y-81908880D01*
X156589666Y-81908880D02*
X156637285Y-81813642D01*
X156637285Y-81813642D02*
X156637285Y-81670785D01*
X156637285Y-81670785D02*
X156589666Y-81575547D01*
X156589666Y-81575547D02*
X156542047Y-81527928D01*
X156542047Y-81527928D02*
X156446809Y-81480309D01*
X156446809Y-81480309D02*
X156065857Y-81480309D01*
X156970619Y-82004119D02*
X157589666Y-82004119D01*
X157589666Y-82004119D02*
X157256333Y-81623166D01*
X157256333Y-81623166D02*
X157399190Y-81623166D01*
X157399190Y-81623166D02*
X157494428Y-81575547D01*
X157494428Y-81575547D02*
X157542047Y-81527928D01*
X157542047Y-81527928D02*
X157589666Y-81432690D01*
X157589666Y-81432690D02*
X157589666Y-81194595D01*
X157589666Y-81194595D02*
X157542047Y-81099357D01*
X157542047Y-81099357D02*
X157494428Y-81051738D01*
X157494428Y-81051738D02*
X157399190Y-81004119D01*
X157399190Y-81004119D02*
X157113476Y-81004119D01*
X157113476Y-81004119D02*
X157018238Y-81051738D01*
X157018238Y-81051738D02*
X156970619Y-81099357D01*
%TO.C,TP4*%
X171011095Y-85774119D02*
X171582523Y-85774119D01*
X171296809Y-84774119D02*
X171296809Y-85774119D01*
X171915857Y-84774119D02*
X171915857Y-85774119D01*
X171915857Y-85774119D02*
X172296809Y-85774119D01*
X172296809Y-85774119D02*
X172392047Y-85726500D01*
X172392047Y-85726500D02*
X172439666Y-85678880D01*
X172439666Y-85678880D02*
X172487285Y-85583642D01*
X172487285Y-85583642D02*
X172487285Y-85440785D01*
X172487285Y-85440785D02*
X172439666Y-85345547D01*
X172439666Y-85345547D02*
X172392047Y-85297928D01*
X172392047Y-85297928D02*
X172296809Y-85250309D01*
X172296809Y-85250309D02*
X171915857Y-85250309D01*
X173344428Y-85440785D02*
X173344428Y-84774119D01*
X173106333Y-85821738D02*
X172868238Y-85107452D01*
X172868238Y-85107452D02*
X173487285Y-85107452D01*
%TO.C,TP7*%
X165423095Y-94116119D02*
X165994523Y-94116119D01*
X165708809Y-93116119D02*
X165708809Y-94116119D01*
X166327857Y-93116119D02*
X166327857Y-94116119D01*
X166327857Y-94116119D02*
X166708809Y-94116119D01*
X166708809Y-94116119D02*
X166804047Y-94068500D01*
X166804047Y-94068500D02*
X166851666Y-94020880D01*
X166851666Y-94020880D02*
X166899285Y-93925642D01*
X166899285Y-93925642D02*
X166899285Y-93782785D01*
X166899285Y-93782785D02*
X166851666Y-93687547D01*
X166851666Y-93687547D02*
X166804047Y-93639928D01*
X166804047Y-93639928D02*
X166708809Y-93592309D01*
X166708809Y-93592309D02*
X166327857Y-93592309D01*
X167232619Y-94116119D02*
X167899285Y-94116119D01*
X167899285Y-94116119D02*
X167470714Y-93116119D01*
%TO.C,TP9*%
X175013095Y-85882619D02*
X175584523Y-85882619D01*
X175298809Y-84882619D02*
X175298809Y-85882619D01*
X175917857Y-84882619D02*
X175917857Y-85882619D01*
X175917857Y-85882619D02*
X176298809Y-85882619D01*
X176298809Y-85882619D02*
X176394047Y-85835000D01*
X176394047Y-85835000D02*
X176441666Y-85787380D01*
X176441666Y-85787380D02*
X176489285Y-85692142D01*
X176489285Y-85692142D02*
X176489285Y-85549285D01*
X176489285Y-85549285D02*
X176441666Y-85454047D01*
X176441666Y-85454047D02*
X176394047Y-85406428D01*
X176394047Y-85406428D02*
X176298809Y-85358809D01*
X176298809Y-85358809D02*
X175917857Y-85358809D01*
X176965476Y-84882619D02*
X177155952Y-84882619D01*
X177155952Y-84882619D02*
X177251190Y-84930238D01*
X177251190Y-84930238D02*
X177298809Y-84977857D01*
X177298809Y-84977857D02*
X177394047Y-85120714D01*
X177394047Y-85120714D02*
X177441666Y-85311190D01*
X177441666Y-85311190D02*
X177441666Y-85692142D01*
X177441666Y-85692142D02*
X177394047Y-85787380D01*
X177394047Y-85787380D02*
X177346428Y-85835000D01*
X177346428Y-85835000D02*
X177251190Y-85882619D01*
X177251190Y-85882619D02*
X177060714Y-85882619D01*
X177060714Y-85882619D02*
X176965476Y-85835000D01*
X176965476Y-85835000D02*
X176917857Y-85787380D01*
X176917857Y-85787380D02*
X176870238Y-85692142D01*
X176870238Y-85692142D02*
X176870238Y-85454047D01*
X176870238Y-85454047D02*
X176917857Y-85358809D01*
X176917857Y-85358809D02*
X176965476Y-85311190D01*
X176965476Y-85311190D02*
X177060714Y-85263571D01*
X177060714Y-85263571D02*
X177251190Y-85263571D01*
X177251190Y-85263571D02*
X177346428Y-85311190D01*
X177346428Y-85311190D02*
X177394047Y-85358809D01*
X177394047Y-85358809D02*
X177441666Y-85454047D01*
%TO.C,TP8*%
X172963095Y-93832619D02*
X173534523Y-93832619D01*
X173248809Y-92832619D02*
X173248809Y-93832619D01*
X173867857Y-92832619D02*
X173867857Y-93832619D01*
X173867857Y-93832619D02*
X174248809Y-93832619D01*
X174248809Y-93832619D02*
X174344047Y-93785000D01*
X174344047Y-93785000D02*
X174391666Y-93737380D01*
X174391666Y-93737380D02*
X174439285Y-93642142D01*
X174439285Y-93642142D02*
X174439285Y-93499285D01*
X174439285Y-93499285D02*
X174391666Y-93404047D01*
X174391666Y-93404047D02*
X174344047Y-93356428D01*
X174344047Y-93356428D02*
X174248809Y-93308809D01*
X174248809Y-93308809D02*
X173867857Y-93308809D01*
X175010714Y-93404047D02*
X174915476Y-93451666D01*
X174915476Y-93451666D02*
X174867857Y-93499285D01*
X174867857Y-93499285D02*
X174820238Y-93594523D01*
X174820238Y-93594523D02*
X174820238Y-93642142D01*
X174820238Y-93642142D02*
X174867857Y-93737380D01*
X174867857Y-93737380D02*
X174915476Y-93785000D01*
X174915476Y-93785000D02*
X175010714Y-93832619D01*
X175010714Y-93832619D02*
X175201190Y-93832619D01*
X175201190Y-93832619D02*
X175296428Y-93785000D01*
X175296428Y-93785000D02*
X175344047Y-93737380D01*
X175344047Y-93737380D02*
X175391666Y-93642142D01*
X175391666Y-93642142D02*
X175391666Y-93594523D01*
X175391666Y-93594523D02*
X175344047Y-93499285D01*
X175344047Y-93499285D02*
X175296428Y-93451666D01*
X175296428Y-93451666D02*
X175201190Y-93404047D01*
X175201190Y-93404047D02*
X175010714Y-93404047D01*
X175010714Y-93404047D02*
X174915476Y-93356428D01*
X174915476Y-93356428D02*
X174867857Y-93308809D01*
X174867857Y-93308809D02*
X174820238Y-93213571D01*
X174820238Y-93213571D02*
X174820238Y-93023095D01*
X174820238Y-93023095D02*
X174867857Y-92927857D01*
X174867857Y-92927857D02*
X174915476Y-92880238D01*
X174915476Y-92880238D02*
X175010714Y-92832619D01*
X175010714Y-92832619D02*
X175201190Y-92832619D01*
X175201190Y-92832619D02*
X175296428Y-92880238D01*
X175296428Y-92880238D02*
X175344047Y-92927857D01*
X175344047Y-92927857D02*
X175391666Y-93023095D01*
X175391666Y-93023095D02*
X175391666Y-93213571D01*
X175391666Y-93213571D02*
X175344047Y-93308809D01*
X175344047Y-93308809D02*
X175296428Y-93356428D01*
X175296428Y-93356428D02*
X175201190Y-93404047D01*
%TO.C,TP1*%
X160790095Y-82004119D02*
X161361523Y-82004119D01*
X161075809Y-81004119D02*
X161075809Y-82004119D01*
X161694857Y-81004119D02*
X161694857Y-82004119D01*
X161694857Y-82004119D02*
X162075809Y-82004119D01*
X162075809Y-82004119D02*
X162171047Y-81956500D01*
X162171047Y-81956500D02*
X162218666Y-81908880D01*
X162218666Y-81908880D02*
X162266285Y-81813642D01*
X162266285Y-81813642D02*
X162266285Y-81670785D01*
X162266285Y-81670785D02*
X162218666Y-81575547D01*
X162218666Y-81575547D02*
X162171047Y-81527928D01*
X162171047Y-81527928D02*
X162075809Y-81480309D01*
X162075809Y-81480309D02*
X161694857Y-81480309D01*
X163218666Y-81004119D02*
X162647238Y-81004119D01*
X162932952Y-81004119D02*
X162932952Y-82004119D01*
X162932952Y-82004119D02*
X162837714Y-81861261D01*
X162837714Y-81861261D02*
X162742476Y-81766023D01*
X162742476Y-81766023D02*
X162647238Y-81718404D01*
%TO.C,TP5*%
X167201095Y-85774119D02*
X167772523Y-85774119D01*
X167486809Y-84774119D02*
X167486809Y-85774119D01*
X168105857Y-84774119D02*
X168105857Y-85774119D01*
X168105857Y-85774119D02*
X168486809Y-85774119D01*
X168486809Y-85774119D02*
X168582047Y-85726500D01*
X168582047Y-85726500D02*
X168629666Y-85678880D01*
X168629666Y-85678880D02*
X168677285Y-85583642D01*
X168677285Y-85583642D02*
X168677285Y-85440785D01*
X168677285Y-85440785D02*
X168629666Y-85345547D01*
X168629666Y-85345547D02*
X168582047Y-85297928D01*
X168582047Y-85297928D02*
X168486809Y-85250309D01*
X168486809Y-85250309D02*
X168105857Y-85250309D01*
X169582047Y-85774119D02*
X169105857Y-85774119D01*
X169105857Y-85774119D02*
X169058238Y-85297928D01*
X169058238Y-85297928D02*
X169105857Y-85345547D01*
X169105857Y-85345547D02*
X169201095Y-85393166D01*
X169201095Y-85393166D02*
X169439190Y-85393166D01*
X169439190Y-85393166D02*
X169534428Y-85345547D01*
X169534428Y-85345547D02*
X169582047Y-85297928D01*
X169582047Y-85297928D02*
X169629666Y-85202690D01*
X169629666Y-85202690D02*
X169629666Y-84964595D01*
X169629666Y-84964595D02*
X169582047Y-84869357D01*
X169582047Y-84869357D02*
X169534428Y-84821738D01*
X169534428Y-84821738D02*
X169439190Y-84774119D01*
X169439190Y-84774119D02*
X169201095Y-84774119D01*
X169201095Y-84774119D02*
X169105857Y-84821738D01*
X169105857Y-84821738D02*
X169058238Y-84869357D01*
D10*
%TO.C,C30*%
X128558500Y-122185302D02*
X128558500Y-122985302D01*
X128158500Y-122585302D02*
X128958500Y-122585302D01*
X126793500Y-126595000D02*
X134953500Y-126595000D01*
X126793500Y-126635000D02*
X134953500Y-126635000D01*
X126793500Y-126675000D02*
X134953500Y-126675000D01*
X126794500Y-126715000D02*
X134952500Y-126715000D01*
X126796500Y-126755000D02*
X134950500Y-126755000D01*
X126797500Y-126795000D02*
X134949500Y-126795000D01*
X126799500Y-126835000D02*
X134947500Y-126835000D01*
X126802500Y-126875000D02*
X134944500Y-126875000D01*
X126805500Y-126915000D02*
X134941500Y-126915000D01*
X126808500Y-126955000D02*
X134938500Y-126955000D01*
X126812500Y-126995000D02*
X134934500Y-126995000D01*
X126816500Y-127035000D02*
X134930500Y-127035000D01*
X126821500Y-127075000D02*
X134925500Y-127075000D01*
X126825500Y-127115000D02*
X134921500Y-127115000D01*
X126831500Y-127155000D02*
X134915500Y-127155000D01*
X126836500Y-127195000D02*
X134910500Y-127195000D01*
X126843500Y-127235000D02*
X134903500Y-127235000D01*
X126849500Y-127275000D02*
X134897500Y-127275000D01*
X131913500Y-127316000D02*
X134890500Y-127316000D01*
X126856500Y-127316000D02*
X129833500Y-127316000D01*
X131913500Y-127356000D02*
X134883500Y-127356000D01*
X126863500Y-127356000D02*
X129833500Y-127356000D01*
X131913500Y-127396000D02*
X134875500Y-127396000D01*
X126871500Y-127396000D02*
X129833500Y-127396000D01*
X131913500Y-127436000D02*
X134867500Y-127436000D01*
X126879500Y-127436000D02*
X129833500Y-127436000D01*
X131913500Y-127476000D02*
X134858500Y-127476000D01*
X126888500Y-127476000D02*
X129833500Y-127476000D01*
X131913500Y-127516000D02*
X134849500Y-127516000D01*
X126897500Y-127516000D02*
X129833500Y-127516000D01*
X131913500Y-127556000D02*
X134840500Y-127556000D01*
X126906500Y-127556000D02*
X129833500Y-127556000D01*
X131913500Y-127596000D02*
X134830500Y-127596000D01*
X126916500Y-127596000D02*
X129833500Y-127596000D01*
X131913500Y-127636000D02*
X134820500Y-127636000D01*
X126926500Y-127636000D02*
X129833500Y-127636000D01*
X131913500Y-127676000D02*
X134809500Y-127676000D01*
X126937500Y-127676000D02*
X129833500Y-127676000D01*
X131913500Y-127716000D02*
X134798500Y-127716000D01*
X126948500Y-127716000D02*
X129833500Y-127716000D01*
X131913500Y-127756000D02*
X134787500Y-127756000D01*
X126959500Y-127756000D02*
X129833500Y-127756000D01*
X131913500Y-127796000D02*
X134775500Y-127796000D01*
X126971500Y-127796000D02*
X129833500Y-127796000D01*
X131913500Y-127836000D02*
X134762500Y-127836000D01*
X126984500Y-127836000D02*
X129833500Y-127836000D01*
X131913500Y-127876000D02*
X134750500Y-127876000D01*
X126996500Y-127876000D02*
X129833500Y-127876000D01*
X131913500Y-127916000D02*
X134736500Y-127916000D01*
X127010500Y-127916000D02*
X129833500Y-127916000D01*
X131913500Y-127956000D02*
X134723500Y-127956000D01*
X127023500Y-127956000D02*
X129833500Y-127956000D01*
X131913500Y-127996000D02*
X134708500Y-127996000D01*
X127038500Y-127996000D02*
X129833500Y-127996000D01*
X131913500Y-128036000D02*
X134694500Y-128036000D01*
X127052500Y-128036000D02*
X129833500Y-128036000D01*
X131913500Y-128076000D02*
X134678500Y-128076000D01*
X127068500Y-128076000D02*
X129833500Y-128076000D01*
X131913500Y-128116000D02*
X134663500Y-128116000D01*
X127083500Y-128116000D02*
X129833500Y-128116000D01*
X131913500Y-128156000D02*
X134647500Y-128156000D01*
X127099500Y-128156000D02*
X129833500Y-128156000D01*
X131913500Y-128196000D02*
X134630500Y-128196000D01*
X127116500Y-128196000D02*
X129833500Y-128196000D01*
X131913500Y-128236000D02*
X134613500Y-128236000D01*
X127133500Y-128236000D02*
X129833500Y-128236000D01*
X131913500Y-128276000D02*
X134595500Y-128276000D01*
X127151500Y-128276000D02*
X129833500Y-128276000D01*
X131913500Y-128316000D02*
X134577500Y-128316000D01*
X127169500Y-128316000D02*
X129833500Y-128316000D01*
X131913500Y-128356000D02*
X134559500Y-128356000D01*
X127187500Y-128356000D02*
X129833500Y-128356000D01*
X131913500Y-128396000D02*
X134539500Y-128396000D01*
X127207500Y-128396000D02*
X129833500Y-128396000D01*
X131913500Y-128436000D02*
X134520500Y-128436000D01*
X127226500Y-128436000D02*
X129833500Y-128436000D01*
X131913500Y-128476000D02*
X134500500Y-128476000D01*
X127246500Y-128476000D02*
X129833500Y-128476000D01*
X131913500Y-128516000D02*
X134479500Y-128516000D01*
X127267500Y-128516000D02*
X129833500Y-128516000D01*
X131913500Y-128556000D02*
X134457500Y-128556000D01*
X127289500Y-128556000D02*
X129833500Y-128556000D01*
X131913500Y-128596000D02*
X134435500Y-128596000D01*
X127311500Y-128596000D02*
X129833500Y-128596000D01*
X131913500Y-128636000D02*
X134413500Y-128636000D01*
X127333500Y-128636000D02*
X129833500Y-128636000D01*
X131913500Y-128676000D02*
X134390500Y-128676000D01*
X127356500Y-128676000D02*
X129833500Y-128676000D01*
X131913500Y-128716000D02*
X134366500Y-128716000D01*
X127380500Y-128716000D02*
X129833500Y-128716000D01*
X131913500Y-128756000D02*
X134342500Y-128756000D01*
X127404500Y-128756000D02*
X129833500Y-128756000D01*
X131913500Y-128796000D02*
X134317500Y-128796000D01*
X127429500Y-128796000D02*
X129833500Y-128796000D01*
X131913500Y-128836000D02*
X134291500Y-128836000D01*
X127455500Y-128836000D02*
X129833500Y-128836000D01*
X131913500Y-128876000D02*
X134265500Y-128876000D01*
X127481500Y-128876000D02*
X129833500Y-128876000D01*
X131913500Y-128916000D02*
X134238500Y-128916000D01*
X127508500Y-128916000D02*
X129833500Y-128916000D01*
X131913500Y-128956000D02*
X134211500Y-128956000D01*
X127535500Y-128956000D02*
X129833500Y-128956000D01*
X131913500Y-128996000D02*
X134182500Y-128996000D01*
X127564500Y-128996000D02*
X129833500Y-128996000D01*
X131913500Y-129036000D02*
X134153500Y-129036000D01*
X127593500Y-129036000D02*
X129833500Y-129036000D01*
X131913500Y-129076000D02*
X134123500Y-129076000D01*
X127623500Y-129076000D02*
X129833500Y-129076000D01*
X131913500Y-129116000D02*
X134093500Y-129116000D01*
X127653500Y-129116000D02*
X129833500Y-129116000D01*
X131913500Y-129156000D02*
X134062500Y-129156000D01*
X127684500Y-129156000D02*
X129833500Y-129156000D01*
X131913500Y-129196000D02*
X134029500Y-129196000D01*
X127717500Y-129196000D02*
X129833500Y-129196000D01*
X131913500Y-129236000D02*
X133997500Y-129236000D01*
X127749500Y-129236000D02*
X129833500Y-129236000D01*
X131913500Y-129276000D02*
X133963500Y-129276000D01*
X127783500Y-129276000D02*
X129833500Y-129276000D01*
X131913500Y-129316000D02*
X133928500Y-129316000D01*
X127818500Y-129316000D02*
X129833500Y-129316000D01*
X131913500Y-129356000D02*
X133892500Y-129356000D01*
X127854500Y-129356000D02*
X129833500Y-129356000D01*
X127890500Y-129396000D02*
X133856500Y-129396000D01*
X127928500Y-129436000D02*
X133818500Y-129436000D01*
X127966500Y-129476000D02*
X133780500Y-129476000D01*
X128006500Y-129516000D02*
X133740500Y-129516000D01*
X128047500Y-129556000D02*
X133699500Y-129556000D01*
X128089500Y-129596000D02*
X133657500Y-129596000D01*
X128132500Y-129636000D02*
X133614500Y-129636000D01*
X128176500Y-129676000D02*
X133570500Y-129676000D01*
X128222500Y-129716000D02*
X133524500Y-129716000D01*
X128269500Y-129756000D02*
X133477500Y-129756000D01*
X128317500Y-129796000D02*
X133429500Y-129796000D01*
X128368500Y-129836000D02*
X133378500Y-129836000D01*
X128419500Y-129876000D02*
X133327500Y-129876000D01*
X128473500Y-129916000D02*
X133273500Y-129916000D01*
X128528500Y-129956000D02*
X133218500Y-129956000D01*
X128586500Y-129996000D02*
X133160500Y-129996000D01*
X128645500Y-130036000D02*
X133101500Y-130036000D01*
X128707500Y-130076000D02*
X133039500Y-130076000D01*
X128771500Y-130116000D02*
X132975500Y-130116000D01*
X128839500Y-130156000D02*
X132907500Y-130156000D01*
X128909500Y-130196000D02*
X132837500Y-130196000D01*
X128983500Y-130236000D02*
X132763500Y-130236000D01*
X129060500Y-130276000D02*
X132686500Y-130276000D01*
X129142500Y-130316000D02*
X132604500Y-130316000D01*
X129228500Y-130356000D02*
X132518500Y-130356000D01*
X129321500Y-130396000D02*
X132425500Y-130396000D01*
X129420500Y-130436000D02*
X132326500Y-130436000D01*
X129527500Y-130476000D02*
X132219500Y-130476000D01*
X129644500Y-130516000D02*
X132102500Y-130516000D01*
X129775500Y-130556000D02*
X131971500Y-130556000D01*
X129925500Y-130596000D02*
X131821500Y-130596000D01*
X130105500Y-130636000D02*
X131641500Y-130636000D01*
X130340500Y-130676000D02*
X131406500Y-130676000D01*
X134993500Y-126595000D02*
G75*
G03*
X134993500Y-126595000I-4120000J0D01*
G01*
D14*
%TO.C,J3*%
X88833000Y-69854500D02*
X110933000Y-69854500D01*
X115933000Y-74854500D02*
X115933000Y-125654500D01*
X93083000Y-78554500D02*
X106683000Y-78554500D01*
X111683000Y-83554500D02*
X111683000Y-116954500D01*
X88083000Y-116954500D02*
X88083000Y-83554500D01*
X106683000Y-121954500D02*
X93083000Y-121954500D01*
X83833000Y-125654500D02*
X83833000Y-74854500D01*
X110933000Y-130654500D02*
X88833000Y-130654500D01*
X115933000Y-74854500D02*
G75*
G03*
X110933000Y-69854500I-5000000J0D01*
G01*
X88833000Y-69854500D02*
G75*
G03*
X83833000Y-74854500I0J-5000000D01*
G01*
X111683000Y-83554500D02*
G75*
G03*
X106683000Y-78554500I-5000000J0D01*
G01*
X93083000Y-78554500D02*
G75*
G03*
X88083000Y-83554500I0J-5000000D01*
G01*
X106683000Y-121954500D02*
G75*
G03*
X111683000Y-116954500I0J5000000D01*
G01*
X88083000Y-116954500D02*
G75*
G03*
X93083000Y-121954500I5000000J0D01*
G01*
X110933000Y-130654500D02*
G75*
G03*
X115933000Y-125654500I0J5000000D01*
G01*
X83833000Y-125654500D02*
G75*
G03*
X88833000Y-130654500I5000000J0D01*
G01*
D15*
X96083000Y-69143500D02*
G75*
G03*
X96083000Y-69143500I-200000J0D01*
G01*
D10*
%TO.C,J2*%
X153625000Y-70924000D02*
X152990000Y-70924000D01*
X153625000Y-71559000D02*
X153625000Y-70924000D01*
D14*
%TO.C,J4*%
X184273000Y-124209500D02*
X206373000Y-124209500D01*
X211373000Y-119209500D02*
X211373000Y-80409500D01*
X202123000Y-115509500D02*
X188523000Y-115509500D01*
X183523000Y-110509500D02*
X183523000Y-89109500D01*
X207123000Y-89109500D02*
X207123000Y-110509500D01*
X188523000Y-84109500D02*
X202123000Y-84109500D01*
X179273000Y-80409500D02*
X179273000Y-119209500D01*
X206373000Y-75409500D02*
X184273000Y-75409500D01*
X179273000Y-119209500D02*
G75*
G03*
X184273000Y-124209500I5000000J0D01*
G01*
X206373000Y-124209500D02*
G75*
G03*
X211373000Y-119209500I0J5000000D01*
G01*
X183523000Y-110509500D02*
G75*
G03*
X188523000Y-115509500I5000000J0D01*
G01*
X202123000Y-115509500D02*
G75*
G03*
X207123000Y-110509500I0J5000000D01*
G01*
X188523000Y-84109500D02*
G75*
G03*
X183523000Y-89109500I0J-5000000D01*
G01*
X207123000Y-89109500D02*
G75*
G03*
X202123000Y-84109500I-5000000J0D01*
G01*
X184273000Y-75409500D02*
G75*
G03*
X179273000Y-80409500I0J-5000000D01*
G01*
X211373000Y-80409500D02*
G75*
G03*
X206373000Y-75409500I-5000000J0D01*
G01*
D16*
X199523000Y-125152500D02*
G75*
G03*
X199523000Y-125152500I-200000J0D01*
G01*
D10*
%TO.C,J5*%
X147580000Y-81945000D02*
X144920000Y-81945000D01*
X147580000Y-71725000D02*
X147580000Y-81945000D01*
X147580000Y-71725000D02*
X144920000Y-71725000D01*
X146250000Y-69125000D02*
X144920000Y-69125000D01*
X144920000Y-71725000D02*
X144920000Y-81945000D01*
X144920000Y-69125000D02*
X144920000Y-70455000D01*
D12*
%TO.C,TP6*%
X171641000Y-90983500D02*
G75*
G03*
X171641000Y-90983500I-1400000J0D01*
G01*
%TO.C,TP3*%
X158900000Y-83871500D02*
G75*
G03*
X158900000Y-83871500I-1400000J0D01*
G01*
%TO.C,TP4*%
X173419000Y-87681500D02*
G75*
G03*
X173419000Y-87681500I-1400000J0D01*
G01*
%TO.C,TP7*%
X168085000Y-90983500D02*
G75*
G03*
X168085000Y-90983500I-1400000J0D01*
G01*
%TO.C,TP9*%
X177675000Y-87750000D02*
G75*
G03*
X177675000Y-87750000I-1400000J0D01*
G01*
%TO.C,TP8*%
X175625000Y-90975000D02*
G75*
G03*
X175625000Y-90975000I-1400000J0D01*
G01*
%TO.C,TP1*%
X162243000Y-83871500D02*
G75*
G03*
X162243000Y-83871500I-1400000J0D01*
G01*
%TO.C,TP5*%
X169863000Y-87681500D02*
G75*
G03*
X169863000Y-87681500I-1400000J0D01*
G01*
%TD*%
%LPC*%
D17*
%TO.C,C30*%
X130873499Y-124844999D03*
D18*
X130873500Y-128345000D03*
%TD*%
D19*
%TO.C,J3*%
X107183000Y-75054500D03*
X89083000Y-76554500D03*
X89083000Y-123954500D03*
X107183000Y-125454500D03*
D20*
X95882999Y-86254499D03*
D21*
X95883000Y-90254500D03*
X95883000Y-94254500D03*
X95883000Y-98254500D03*
X95883000Y-102254500D03*
X95883000Y-106254500D03*
X95883000Y-110254500D03*
X95883000Y-114254500D03*
X99883000Y-88254500D03*
X99883000Y-92254500D03*
X99883000Y-96254500D03*
X99883000Y-100254500D03*
X99883000Y-104254500D03*
X99883000Y-108254500D03*
X99883000Y-112254500D03*
X103883000Y-86254500D03*
X103883000Y-90254500D03*
X103883000Y-94254500D03*
X103883000Y-98254500D03*
X103883000Y-102254500D03*
X103883000Y-106254500D03*
X103883000Y-110254500D03*
X103883000Y-114254500D03*
%TD*%
D22*
%TO.C,J2*%
X152355000Y-70289000D03*
X153371000Y-75369000D03*
X151339000Y-75369000D03*
D23*
X152990000Y-71559000D03*
X151720000Y-71559000D03*
X152990000Y-72829000D03*
X151720000Y-72829000D03*
X152990000Y-74099000D03*
X151720000Y-74099000D03*
%TD*%
D19*
%TO.C,J4*%
X188023000Y-119009500D03*
X206123000Y-117509500D03*
X206123000Y-82109500D03*
X188023000Y-80609500D03*
D20*
X199322999Y-107809499D03*
D21*
X199323000Y-103809500D03*
X199323000Y-99809500D03*
X199323000Y-95809500D03*
X199323000Y-91809500D03*
X195323000Y-105809500D03*
X195323000Y-101809500D03*
X195323000Y-97809500D03*
X195323000Y-93809500D03*
X191323000Y-107809500D03*
X191323000Y-103809500D03*
X191323000Y-99809500D03*
X191323000Y-95809500D03*
X191323000Y-91809500D03*
%TD*%
D24*
%TO.C,J5*%
X146249999Y-70454999D03*
D25*
X146249999Y-72994999D03*
X146249999Y-75534999D03*
X146249999Y-78074999D03*
X146249999Y-80614999D03*
%TD*%
D19*
%TO.C,TP6*%
X170241000Y-90983500D03*
%TD*%
%TO.C,TP3*%
X157500000Y-83871500D03*
%TD*%
%TO.C,TP4*%
X172019000Y-87681500D03*
%TD*%
%TO.C,TP7*%
X166685000Y-90983500D03*
%TD*%
%TO.C,TP9*%
X176275000Y-87750000D03*
%TD*%
%TO.C,TP8*%
X174225000Y-90975000D03*
%TD*%
%TO.C,TP1*%
X160843000Y-83871500D03*
%TD*%
%TO.C,TP5*%
X168463000Y-87681500D03*
%TD*%
D26*
X190750000Y-84558500D03*
X168209000Y-122035000D03*
X164335500Y-85395500D03*
X208339500Y-102783000D03*
X168000000Y-94475000D03*
X158000000Y-90750000D03*
X169240000Y-98971500D03*
X114424500Y-77394500D03*
X165575000Y-89550000D03*
X148270000Y-117272500D03*
X158250000Y-93750000D03*
X144800000Y-103775000D03*
X136332000Y-126543500D03*
X145075000Y-76725000D03*
X178115000Y-117272500D03*
X166192000Y-98971500D03*
X144975000Y-79425000D03*
X149222500Y-117272500D03*
X142555000Y-130290000D03*
X146301500Y-124067000D03*
X168209000Y-123813000D03*
X144075000Y-99650000D03*
X155572500Y-131242500D03*
X152104000Y-105334500D03*
X120393500Y-70854000D03*
X179829500Y-109271500D03*
X88326000Y-106731500D03*
X140396000Y-104255000D03*
X150775000Y-91250000D03*
X150600000Y-99800000D03*
X137348000Y-94857000D03*
X156588500Y-77648500D03*
X149476500Y-109970000D03*
X128077000Y-111557500D03*
X150625000Y-101600000D03*
X163129000Y-101969000D03*
X137348000Y-88316500D03*
X113345000Y-128702500D03*
X150683000Y-126035500D03*
X141285000Y-101715000D03*
X125575000Y-89483500D03*
X130109000Y-100381500D03*
X133157000Y-111811500D03*
X145150000Y-74300000D03*
X122870000Y-128829500D03*
X142555000Y-128258000D03*
X139507000Y-130861500D03*
X144206000Y-101524500D03*
X147762000Y-109970000D03*
X126000000Y-111700000D03*
X208339500Y-100687500D03*
X166304000Y-119177500D03*
X145349000Y-130861500D03*
X177607000Y-118225000D03*
X153162000Y-85852000D03*
X147750000Y-94950000D03*
X157731500Y-130925000D03*
X157985500Y-109970000D03*
X167193000Y-101270500D03*
X175145500Y-98908000D03*
X147317500Y-117272500D03*
X132649000Y-105461500D03*
X125283000Y-106223500D03*
X143375000Y-72100000D03*
X168209000Y-122987500D03*
X154429500Y-113335500D03*
X138554500Y-81649000D03*
X85278000Y-106731500D03*
X162600000Y-104575000D03*
X123251000Y-98857500D03*
X153921500Y-131242500D03*
X154747000Y-131242500D03*
X152842000Y-113335500D03*
X157096500Y-105779000D03*
X158300000Y-100650000D03*
X154048500Y-74092500D03*
X159509500Y-109970000D03*
X112329000Y-128702500D03*
X176654500Y-76315000D03*
X127175000Y-89483500D03*
X146936500Y-118415500D03*
X114361000Y-128702500D03*
X161900000Y-88550000D03*
X123060500Y-70854000D03*
X172161000Y-98908000D03*
X126045000Y-79271500D03*
X122679500Y-76696000D03*
X142555000Y-129274000D03*
X162225000Y-87425000D03*
X120965000Y-81077500D03*
X132737500Y-70829000D03*
X143698000Y-104255000D03*
X156271000Y-105715500D03*
X142936000Y-89586500D03*
X139600000Y-76325000D03*
X147190500Y-86856000D03*
X149921000Y-105588500D03*
X163891000Y-94793500D03*
X164526000Y-89459500D03*
X163258500Y-109396000D03*
X164653000Y-118923500D03*
X155064500Y-71616000D03*
X150378500Y-107544000D03*
X136903500Y-73140000D03*
X153921500Y-94764900D03*
X156525000Y-74219500D03*
X136509500Y-110618000D03*
X161986000Y-72505000D03*
X114488000Y-80887000D03*
X134808000Y-93841000D03*
X171447500Y-113272000D03*
X136509500Y-108052000D03*
X134808000Y-89904000D03*
X181417000Y-123051000D03*
X136509500Y-103887000D03*
X134808000Y-96444500D03*
X129347000Y-96571500D03*
X141350000Y-70500000D03*
X115631000Y-113335500D03*
X112424500Y-113208500D03*
X124775000Y-114351500D03*
X130871000Y-116891500D03*
X138681500Y-97143000D03*
X155856234Y-97159000D03*
X155344929Y-97786000D03*
X136776500Y-97778000D03*
X124160000Y-78644500D03*
X124223500Y-79914500D03*
X117505000Y-89649500D03*
X117455000Y-97849500D03*
X116005000Y-106549500D03*
X149823500Y-77985618D03*
X145476000Y-84200000D03*
X150325000Y-73275000D03*
X150775000Y-71550000D03*
X150501500Y-78550000D03*
X149032000Y-83825000D03*
X176908500Y-108382500D03*
X178877000Y-113081500D03*
X176816500Y-111713000D03*
X171233675Y-108390275D03*
X144750000Y-86300000D03*
X152750000Y-90400000D03*
X124561600Y-82453700D03*
X150215600Y-94792800D03*
X123850400Y-83007200D03*
X149580600Y-95580200D03*
X166685000Y-81331500D03*
X165669000Y-82093500D03*
X166166228Y-83606728D03*
X184654000Y-101830500D03*
X114361000Y-109525500D03*
X113924194Y-107564694D03*
X121355000Y-88449500D03*
X111455000Y-99199500D03*
X119155000Y-102889500D03*
X120055000Y-94699500D03*
X120711000Y-111557500D03*
X120965000Y-114351500D03*
X120355000Y-98499500D03*
X120305000Y-103699500D03*
X148803000Y-91547000D03*
X142675000Y-81400000D03*
X109535000Y-97841500D03*
X128331000Y-113589500D03*
X131379000Y-113843500D03*
X111567000Y-100381500D03*
X129855000Y-92507500D03*
X129855000Y-87173500D03*
X127492800Y-101321300D03*
X128331000Y-102413500D03*
X130617000Y-91526500D03*
X129855000Y-85141500D03*
X130718600Y-111303500D03*
X129880400Y-111303500D03*
X92136000Y-105906000D03*
X154550000Y-101600000D03*
X159668003Y-102018003D03*
X180084750Y-100065250D03*
X167750000Y-96571500D03*
X172161000Y-95542500D03*
X167200000Y-99477500D03*
X159700000Y-101100000D03*
X198116000Y-86781000D03*
X171685500Y-119542500D03*
X159400000Y-105400000D03*
X171828500Y-107600000D03*
X164950000Y-105250000D03*
M02*
