M48
; DRILL file {KiCad 7.0.0-rc1-unknown-0.4.rc2.fc37} date Tue 14 Feb 2023 08:33:30 PM PST
; FORMAT={-:-/ absolute / inch / decimal}
; #@! TF.CreationDate,2023-02-14T20:33:30-08:00
; #@! TF.GenerationSoftware,Kicad,Pcbnew,7.0.0-rc1-unknown-0.4.rc2.fc37
; #@! TF.FileFunction,Plated,1,4,PTH
FMAT,2
INCH
; #@! TA.AperFunction,Plated,PTH,ViaDrill
T1C0.0118
; #@! TA.AperFunction,Plated,PTH,ComponentDrill
T2C0.0315
; #@! TA.AperFunction,Plated,PTH,ComponentDrill
T3C0.0394
; #@! TA.AperFunction,Plated,PTH,ComponentDrill
T4C0.0689
%
G90
G05
T1
X3.3574Y-4.202
X3.4774Y-4.202
X3.6274Y-4.1695
X4.3124Y-3.852
X4.388Y-3.9055
X4.3924Y-3.952
X4.4224Y-5.067
X4.4262Y-4.457
X4.4624Y-5.067
X4.4852Y-4.2348
X4.5024Y-4.312
X4.5024Y-5.067
X4.5049Y-3.047
X4.5074Y-3.1845
X4.5524Y-4.462
X4.5671Y-4.1949
X4.6242Y-3.8523
X4.6262Y-3.5295
X4.6911Y-4.0508
X4.7266Y-3.7283
X4.7364Y-4.0827
X4.7384Y-3.8779
X4.7399Y-2.7895
X4.7524Y-4.392
X4.7624Y-3.192
X4.7624Y-4.502
X4.7778Y-3.4823
X4.8299Y-3.0195
X4.8374Y-5.072
X4.8449Y-2.7895
X4.8524Y-3.892
X4.876Y-3.268
X4.8882Y-3.0962
X4.8907Y-3.1462
X4.904Y-3.2462
X4.9124Y-4.502
X4.9324Y-4.182
X4.9439Y-3.523
X4.9606Y-4.3976
X4.9624Y-3.1209
X5.0069Y-3.523
X5.0194Y-3.989
X5.0424Y-4.392
X5.0524Y-4.032
X5.0524Y-4.472
X5.0924Y-3.802
X5.1124Y-3.352
X5.1124Y-3.432
X5.1124Y-3.642
X5.1134Y-4.382
X5.1224Y-3.952
X5.1424Y-3.6034
X5.1464Y-4.382
X5.1524Y-4.602
X5.1724Y-4.482
X5.2224Y-4.152
X5.2259Y-2.7885
X5.2424Y-4.402
X5.3074Y-3.5395
X5.3074Y-3.6945
X5.3074Y-3.797
X5.3674Y-4.982
X5.3744Y-4.09
X5.3744Y-4.254
X5.3744Y-4.355
X5.3849Y-3.8495
X5.3899Y-2.8795
X5.4074Y-3.477
X5.4074Y-3.7345
X5.4549Y-3.2145
X5.4599Y-3.8245
X5.4924Y-5.152
X5.4961Y-3.0049
X5.5274Y-4.1045
X5.5624Y-4.0045
X5.565Y-2.7756
X5.6124Y-5.0495
X5.6124Y-5.0895
X5.6124Y-5.1295
X5.6171Y-3.2047
X5.6274Y-3.527
X5.6447Y-2.8386
X5.6574Y-4.1045
X5.6722Y-3.9232
X5.6774Y-3.997
X5.6988Y-3.3976
X5.7008Y-4.0856
X5.7077Y-3.127
X5.7116Y-3.0207
X5.7146Y-2.9252
X5.7224Y-5.152
X5.7274Y-3.315
X5.7599Y-4.8845
X5.7849Y-4.662
X5.7949Y-3.4195
X5.7999Y-4.617
X5.8169Y-3.7382
X5.8174Y-4.3295
X5.8374Y-4.617
X5.8584Y-3.6042
X5.8674Y-3.3002
X5.8749Y-4.617
X5.8849Y-4.3295
X5.889Y-3.763
X5.8986Y-3.0703
X5.9024Y-4.157
X5.914Y-3.732
X5.9183Y-2.8848
X5.9204Y-4.234
X5.9253Y-3.0925
X5.9291Y-3.9291
X5.9301Y-4.0
X5.9324Y-4.962
X5.936Y-2.8169
X5.936Y-3.5925
X5.9883Y-4.147
X6.0138Y-3.5591
X6.0174Y-4.462
X6.03Y-3.38
X6.0599Y-3.7309
X6.0599Y-5.167
X6.0649Y-2.917
X6.0799Y-4.462
X6.0846Y-4.0
X6.0924Y-5.167
X6.1049Y-2.8195
X6.1159Y-3.8498
X6.1249Y-5.167
X6.1361Y-3.8252
X6.1524Y-4.162
X6.1624Y-2.922
X6.1649Y-3.057
X6.1849Y-4.1645
X6.2099Y-5.1545
X6.2199Y-4.3295
X6.2205Y-3.5728
X6.2303Y-3.6909
X6.2323Y-3.9626
X6.2756Y-4.1496
X6.2799Y-4.3295
X6.2861Y-4.0165
X6.2874Y-3.9803
X6.374Y-3.4862
X6.3774Y-2.8545
X6.3868Y-3.4419
X6.4016Y-4.1171
X6.4224Y-4.0145
X6.4275Y-4.3069
X6.4524Y-3.732
X6.4699Y-3.362
X6.4774Y-3.522
X6.4824Y-4.682
X6.4941Y-4.1437
X6.5187Y-3.5256
X6.5224Y-3.232
X6.542Y-3.2916
X6.543Y-3.8965
X6.5474Y-4.692
X6.5624Y-3.202
X6.5824Y-3.987
X6.5827Y-3.9164
X6.6043Y-3.802
X6.6142Y-3.7195
X6.6224Y-4.8045
X6.6224Y-4.842
X6.6224Y-4.8745
X6.663Y-3.8965
X6.7415Y-4.2673
X6.7499Y-4.4595
X6.7593Y-4.7064
X6.7649Y-4.2362
X6.778Y-3.7615
X6.778Y-3.894
X6.8955Y-3.894
X6.9549Y-3.0045
X6.9613Y-4.3981
X6.9649Y-4.267
X6.9924Y-4.6545
X7.0124Y-4.617
X7.0424Y-4.452
X7.0799Y-4.302
X7.09Y-3.9396
X7.1424Y-4.8445
X7.2698Y-4.0091
X7.5098Y-3.3291
X7.7998Y-3.4166
X8.2023Y-3.9641
X8.2023Y-4.0466
T2
X5.1525Y-4.9152
X5.1525Y-5.053
T3
X5.7579Y-2.7738
X5.7579Y-2.8738
X5.7579Y-2.9738
X5.7579Y-3.0738
X5.7579Y-3.1738
X6.2008Y-3.302
X6.3324Y-3.302
X6.5624Y-3.582
X6.6324Y-3.452
X6.7024Y-3.582
X6.7724Y-3.452
X6.8593Y-3.5817
X6.94Y-3.4547
T4
X3.7749Y-3.3958
X3.7749Y-3.5533
X3.7749Y-3.7108
X3.7749Y-3.8683
X3.7749Y-4.0258
X3.7749Y-4.1832
X3.7749Y-4.3407
X3.7749Y-4.4982
X3.9324Y-3.4746
X3.9324Y-3.6321
X3.9324Y-3.7895
X3.9324Y-3.947
X3.9324Y-4.1045
X3.9324Y-4.262
X3.9324Y-4.4195
X4.0899Y-3.3958
X4.0899Y-3.5533
X4.0899Y-3.7108
X4.0899Y-3.8683
X4.0899Y-4.0258
X4.0899Y-4.1832
X4.0899Y-4.3407
X4.0899Y-4.4982
X7.5324Y-3.6145
X7.5324Y-3.772
X7.5324Y-3.9295
X7.5324Y-4.087
X7.5324Y-4.2445
X7.6899Y-3.6933
X7.6899Y-3.8508
X7.6899Y-4.0082
X7.6899Y-4.1657
X7.8474Y-3.6145
X7.8474Y-3.772
X7.8474Y-3.9295
X7.8474Y-4.087
X7.8474Y-4.2445
T0
M30
