%TF.GenerationSoftware,KiCad,Pcbnew,7.0.0-rc1-unknown-0.4.rc2.fc37*%
%TF.CreationDate,2023-02-14T20:33:30-08:00*%
%TF.ProjectId,prius_gen2,70726975-735f-4676-956e-322e6b696361,rev?*%
%TF.SameCoordinates,Original*%
%TF.FileFunction,Paste,Top*%
%TF.FilePolarity,Positive*%
%FSLAX46Y46*%
G04 Gerber Fmt 4.6, Leading zero omitted, Abs format (unit mm)*
G04 Created by KiCad (PCBNEW 7.0.0-rc1-unknown-0.4.rc2.fc37) date 2023-02-14 20:33:30*
%MOMM*%
%LPD*%
G01*
G04 APERTURE LIST*
G04 Aperture macros list*
%AMRoundRect*
0 Rectangle with rounded corners*
0 $1 Rounding radius*
0 $2 $3 $4 $5 $6 $7 $8 $9 X,Y pos of 4 corners*
0 Add a 4 corners polygon primitive as box body*
4,1,4,$2,$3,$4,$5,$6,$7,$8,$9,$2,$3,0*
0 Add four circle primitives for the rounded corners*
1,1,$1+$1,$2,$3*
1,1,$1+$1,$4,$5*
1,1,$1+$1,$6,$7*
1,1,$1+$1,$8,$9*
0 Add four rect primitives between the rounded corners*
20,1,$1+$1,$2,$3,$4,$5,0*
20,1,$1+$1,$4,$5,$6,$7,0*
20,1,$1+$1,$6,$7,$8,$9,0*
20,1,$1+$1,$8,$9,$2,$3,0*%
G04 Aperture macros list end*
%ADD10RoundRect,0.200000X-0.275000X0.200000X-0.275000X-0.200000X0.275000X-0.200000X0.275000X0.200000X0*%
%ADD11RoundRect,0.225000X-0.250000X0.225000X-0.250000X-0.225000X0.250000X-0.225000X0.250000X0.225000X0*%
%ADD12RoundRect,0.225000X-0.225000X-0.250000X0.225000X-0.250000X0.225000X0.250000X-0.225000X0.250000X0*%
%ADD13RoundRect,0.200000X0.200000X0.275000X-0.200000X0.275000X-0.200000X-0.275000X0.200000X-0.275000X0*%
%ADD14RoundRect,0.225000X0.250000X-0.225000X0.250000X0.225000X-0.250000X0.225000X-0.250000X-0.225000X0*%
%ADD15R,3.200000X1.000000*%
%ADD16RoundRect,0.150000X-0.825000X-0.150000X0.825000X-0.150000X0.825000X0.150000X-0.825000X0.150000X0*%
%ADD17RoundRect,0.225000X0.225000X0.250000X-0.225000X0.250000X-0.225000X-0.250000X0.225000X-0.250000X0*%
%ADD18R,2.000000X2.400000*%
%ADD19RoundRect,0.212500X0.400000X0.212500X-0.400000X0.212500X-0.400000X-0.212500X0.400000X-0.212500X0*%
%ADD20RoundRect,0.200000X0.275000X-0.200000X0.275000X0.200000X-0.275000X0.200000X-0.275000X-0.200000X0*%
%ADD21RoundRect,0.200000X-0.200000X-0.275000X0.200000X-0.275000X0.200000X0.275000X-0.200000X0.275000X0*%
%ADD22RoundRect,0.250000X-0.375000X-1.075000X0.375000X-1.075000X0.375000X1.075000X-0.375000X1.075000X0*%
%ADD23R,0.700000X0.450000*%
%ADD24R,3.300000X2.500000*%
%ADD25R,2.500000X1.800000*%
%ADD26R,1.800000X2.500000*%
%ADD27RoundRect,0.250000X-0.475000X0.250000X-0.475000X-0.250000X0.475000X-0.250000X0.475000X0.250000X0*%
%ADD28R,1.500000X2.000000*%
%ADD29R,3.800000X2.000000*%
%ADD30RoundRect,0.230000X-0.230000X-0.375000X0.230000X-0.375000X0.230000X0.375000X-0.230000X0.375000X0*%
%ADD31RoundRect,0.230000X0.375000X-0.230000X0.375000X0.230000X-0.375000X0.230000X-0.375000X-0.230000X0*%
%ADD32RoundRect,0.150000X0.150000X-0.825000X0.150000X0.825000X-0.150000X0.825000X-0.150000X-0.825000X0*%
%ADD33R,1.900000X2.500000*%
%ADD34RoundRect,0.218750X0.218750X0.256250X-0.218750X0.256250X-0.218750X-0.256250X0.218750X-0.256250X0*%
%ADD35RoundRect,0.137500X-0.662500X-0.137500X0.662500X-0.137500X0.662500X0.137500X-0.662500X0.137500X0*%
%ADD36R,0.900000X1.200000*%
%ADD37RoundRect,0.150000X0.512500X0.150000X-0.512500X0.150000X-0.512500X-0.150000X0.512500X-0.150000X0*%
%ADD38R,1.220000X0.650000*%
%ADD39RoundRect,0.075000X0.075000X-0.725000X0.075000X0.725000X-0.075000X0.725000X-0.075000X-0.725000X0*%
%ADD40RoundRect,0.075000X0.725000X-0.075000X0.725000X0.075000X-0.725000X0.075000X-0.725000X-0.075000X0*%
%ADD41R,1.473200X0.508000*%
%ADD42R,0.508000X1.473200*%
%ADD43RoundRect,0.135000X0.185000X-0.135000X0.185000X0.135000X-0.185000X0.135000X-0.185000X-0.135000X0*%
%ADD44RoundRect,0.150000X0.825000X0.150000X-0.825000X0.150000X-0.825000X-0.150000X0.825000X-0.150000X0*%
G04 APERTURE END LIST*
D10*
%TO.C,R13*%
X91285500Y-104247000D03*
X91285500Y-105897000D03*
%TD*%
D11*
%TO.C,C29*%
X122873500Y-126295000D03*
X122873500Y-127845000D03*
%TD*%
%TO.C,C31*%
X136373500Y-123845000D03*
X136373500Y-125395000D03*
%TD*%
D12*
%TO.C,C32*%
X149082500Y-125210000D03*
X150632500Y-125210000D03*
%TD*%
%TO.C,C33*%
X141666000Y-120765000D03*
X143216000Y-120765000D03*
%TD*%
%TO.C,C34*%
X148423500Y-129845000D03*
X149973500Y-129845000D03*
%TD*%
D13*
%TO.C,R29*%
X150023500Y-128345000D03*
X148373500Y-128345000D03*
%TD*%
D10*
%TO.C,R7*%
X130871000Y-88977000D03*
X130871000Y-90627000D03*
%TD*%
%TO.C,R42*%
X199322500Y-86782000D03*
X199322500Y-88432000D03*
%TD*%
%TO.C,R28*%
X145373500Y-128195000D03*
X145373500Y-129845000D03*
%TD*%
D11*
%TO.C,C35*%
X154873500Y-128295000D03*
X154873500Y-129845000D03*
%TD*%
%TO.C,C36*%
X157795000Y-128295000D03*
X157795000Y-129845000D03*
%TD*%
D12*
%TO.C,C37*%
X164703500Y-120193500D03*
X166253500Y-120193500D03*
%TD*%
D14*
%TO.C,C13*%
X137328500Y-90777000D03*
X137328500Y-89227000D03*
%TD*%
D11*
%TO.C,C14*%
X137328500Y-92452000D03*
X137328500Y-94002000D03*
%TD*%
%TO.C,C15*%
X85285500Y-104297000D03*
X85285500Y-105847000D03*
%TD*%
D15*
%TO.C,SW1*%
X129340499Y-70828999D03*
X136140499Y-70828999D03*
X129340499Y-74828999D03*
X136140499Y-74828999D03*
%TD*%
D16*
%TO.C,U4*%
X117765000Y-77374500D03*
X117765000Y-78644500D03*
X117765000Y-79914500D03*
X117765000Y-81184500D03*
X122715000Y-81184500D03*
X122715000Y-79914500D03*
X122715000Y-78644500D03*
X122715000Y-77374500D03*
%TD*%
D17*
%TO.C,C6*%
X142822000Y-102604000D03*
X141272000Y-102604000D03*
%TD*%
D11*
%TO.C,C38*%
X169225000Y-96571500D03*
X169225000Y-98121500D03*
%TD*%
%TO.C,C41*%
X175130500Y-96529500D03*
X175130500Y-98079500D03*
%TD*%
D10*
%TO.C,R11*%
X88285500Y-104247000D03*
X88285500Y-105897000D03*
%TD*%
D13*
%TO.C,R12*%
X93087500Y-108700000D03*
X91437500Y-108700000D03*
%TD*%
%TO.C,R10*%
X133982000Y-92599500D03*
X132332000Y-92599500D03*
%TD*%
%TO.C,R25*%
X130755000Y-80315500D03*
X129105000Y-80315500D03*
%TD*%
D10*
%TO.C,R26*%
X122873500Y-123195000D03*
X122873500Y-124845000D03*
%TD*%
D18*
%TO.C,Y1*%
X151817499Y-109334999D03*
X155517499Y-109334999D03*
%TD*%
D15*
%TO.C,SW2*%
X118340499Y-70828999D03*
X125140499Y-70828999D03*
X118340499Y-74828999D03*
X125140499Y-74828999D03*
%TD*%
D19*
%TO.C,D2*%
X142817500Y-92317000D03*
X141192500Y-92317000D03*
%TD*%
D20*
%TO.C,R8*%
X130871000Y-94602500D03*
X130871000Y-92952500D03*
%TD*%
D13*
%TO.C,R9*%
X133982000Y-90983500D03*
X132332000Y-90983500D03*
%TD*%
D10*
%TO.C,R35*%
X166225000Y-96521500D03*
X166225000Y-98171500D03*
%TD*%
D21*
%TO.C,R30*%
X186940500Y-105831000D03*
X188590500Y-105831000D03*
%TD*%
D22*
%TO.C,L1*%
X125373500Y-120345000D03*
X128173500Y-120345000D03*
%TD*%
D10*
%TO.C,R1*%
X156525000Y-71616500D03*
X156525000Y-73266500D03*
%TD*%
D23*
%TO.C,D3*%
X127194999Y-79929499D03*
X127194999Y-78629499D03*
X125194999Y-79279499D03*
%TD*%
D24*
%TO.C,D4*%
X113373499Y-119944999D03*
X113373499Y-126744999D03*
%TD*%
D25*
%TO.C,D5*%
X122873499Y-120344999D03*
X118873499Y-120344999D03*
%TD*%
D26*
%TO.C,D6*%
X148396999Y-122447499D03*
X148396999Y-118447499D03*
%TD*%
D27*
%TO.C,FB1*%
X161414500Y-107496000D03*
X161414500Y-109396000D03*
%TD*%
D10*
%TO.C,R45*%
X172130500Y-96479500D03*
X172130500Y-98129500D03*
%TD*%
%TO.C,R27*%
X139473500Y-128195000D03*
X139473500Y-129845000D03*
%TD*%
D13*
%TO.C,R6*%
X142850000Y-90602500D03*
X141200000Y-90602500D03*
%TD*%
D10*
%TO.C,R2*%
X139507000Y-79998500D03*
X139507000Y-81648500D03*
%TD*%
D28*
%TO.C,U6*%
X167022999Y-122976999D03*
X164722999Y-122976999D03*
D29*
X164722999Y-129276999D03*
D28*
X162422999Y-122976999D03*
%TD*%
D30*
%TO.C,U5*%
X141873500Y-123845000D03*
X141873500Y-125345000D03*
X143013500Y-123845000D03*
X143013500Y-125345000D03*
D16*
X139968500Y-122690000D03*
X139968500Y-123960000D03*
X139968500Y-125230000D03*
X139968500Y-126500000D03*
X144918500Y-126500000D03*
X144918500Y-125230000D03*
X144918500Y-123960000D03*
X144918500Y-122690000D03*
%TD*%
D10*
%TO.C,R18*%
X163954500Y-72315000D03*
X163954500Y-73965000D03*
%TD*%
D12*
%TO.C,C17*%
X206739000Y-99798500D03*
X208289000Y-99798500D03*
%TD*%
D21*
%TO.C,R16*%
X202102500Y-101830500D03*
X203752500Y-101830500D03*
%TD*%
%TO.C,R17*%
X206689500Y-101830500D03*
X208339500Y-101830500D03*
%TD*%
D31*
%TO.C,U7*%
X174161500Y-116316500D03*
X175661500Y-116316500D03*
X174161500Y-115176500D03*
X175661500Y-115176500D03*
D32*
X173006500Y-118221500D03*
X174276500Y-118221500D03*
X175546500Y-118221500D03*
X176816500Y-118221500D03*
X176816500Y-113271500D03*
X175546500Y-113271500D03*
X174276500Y-113271500D03*
X173006500Y-113271500D03*
%TD*%
D13*
%TO.C,R41*%
X175236500Y-107746500D03*
X173586500Y-107746500D03*
%TD*%
D11*
%TO.C,C39*%
X179411500Y-120646500D03*
X179411500Y-122196500D03*
%TD*%
D17*
%TO.C,C40*%
X180511500Y-117246500D03*
X178961500Y-117246500D03*
%TD*%
D20*
%TO.C,R43*%
X171411500Y-122246500D03*
X171411500Y-120596500D03*
%TD*%
D13*
%TO.C,R34*%
X180561500Y-114246500D03*
X178911500Y-114246500D03*
%TD*%
D20*
%TO.C,R38*%
X171411500Y-110896500D03*
X171411500Y-109246500D03*
%TD*%
%TO.C,R36*%
X181411500Y-122246500D03*
X181411500Y-120596500D03*
%TD*%
D10*
%TO.C,R37*%
X177411500Y-120596500D03*
X177411500Y-122246500D03*
%TD*%
D20*
%TO.C,R33*%
X176911500Y-110896500D03*
X176911500Y-109246500D03*
%TD*%
D10*
%TO.C,R31*%
X175411500Y-120596500D03*
X175411500Y-122246500D03*
%TD*%
%TO.C,R32*%
X183411500Y-120596500D03*
X183411500Y-122246500D03*
%TD*%
D20*
%TO.C,R39*%
X178911500Y-110896500D03*
X178911500Y-109246500D03*
%TD*%
D10*
%TO.C,R40*%
X173411500Y-120596500D03*
X173411500Y-122246500D03*
%TD*%
D13*
%TO.C,R44*%
X175236500Y-110746500D03*
X173586500Y-110746500D03*
%TD*%
D33*
%TO.C,L2*%
X152854999Y-121399499D03*
X156954999Y-121399499D03*
%TD*%
D12*
%TO.C,C2*%
X154416500Y-112256000D03*
X155966500Y-112256000D03*
%TD*%
D11*
%TO.C,C7*%
X147762000Y-107544000D03*
X147762000Y-109094000D03*
%TD*%
%TO.C,C4*%
X159509500Y-107544000D03*
X159509500Y-109094000D03*
%TD*%
%TO.C,C8*%
X149476500Y-107544000D03*
X149476500Y-109094000D03*
%TD*%
D12*
%TO.C,C9*%
X164894000Y-101270500D03*
X166444000Y-101270500D03*
%TD*%
D14*
%TO.C,C11*%
X146525000Y-84500000D03*
X146525000Y-82950000D03*
%TD*%
D17*
%TO.C,C12*%
X142822000Y-104255000D03*
X141272000Y-104255000D03*
%TD*%
D14*
%TO.C,C3*%
X156525000Y-76772500D03*
X156525000Y-75222500D03*
%TD*%
D11*
%TO.C,C5*%
X157985500Y-107544000D03*
X157985500Y-109094000D03*
%TD*%
D14*
%TO.C,C28*%
X114488000Y-79947500D03*
X114488000Y-78397500D03*
%TD*%
D17*
%TO.C,C1*%
X152855000Y-112256000D03*
X151305000Y-112256000D03*
%TD*%
D34*
%TO.C,R5*%
X142812500Y-87599500D03*
X141237500Y-87599500D03*
%TD*%
D19*
%TO.C,D1*%
X142817500Y-85749500D03*
X141192500Y-85749500D03*
%TD*%
D13*
%TO.C,R3*%
X160475000Y-86475000D03*
X162125000Y-86475000D03*
%TD*%
D14*
%TO.C,C10*%
X165175000Y-88350000D03*
X165175000Y-86800000D03*
%TD*%
D35*
%TO.C,U2*%
X164260500Y-75743500D03*
X164260500Y-77013500D03*
X164260500Y-78283500D03*
X164260500Y-79553500D03*
X164260500Y-80823500D03*
X164260500Y-82093500D03*
X164260500Y-83363500D03*
X164260500Y-84633500D03*
X170760500Y-84633500D03*
X170760500Y-83363500D03*
X170760500Y-82093500D03*
X170760500Y-80823500D03*
X170760500Y-79553500D03*
X170760500Y-78283500D03*
X170760500Y-77013500D03*
X170760500Y-75743500D03*
%TD*%
D20*
%TO.C,R54*%
X118679000Y-97396500D03*
X118679000Y-95746500D03*
%TD*%
D36*
%TO.C,D9*%
X120582999Y-107874499D03*
X117282999Y-107874499D03*
%TD*%
D37*
%TO.C,U9*%
X143262500Y-75350000D03*
X143262500Y-74400000D03*
X143262500Y-73450000D03*
X140987500Y-73450000D03*
X140987500Y-74400000D03*
X140987500Y-75350000D03*
%TD*%
D14*
%TO.C,C26*%
X148050000Y-84500000D03*
X148050000Y-82950000D03*
%TD*%
D20*
%TO.C,R23*%
X127061000Y-115430500D03*
X127061000Y-113780500D03*
%TD*%
D14*
%TO.C,C21*%
X130109000Y-115380500D03*
X130109000Y-113830500D03*
%TD*%
%TO.C,C27*%
X163675000Y-88350000D03*
X163675000Y-86800000D03*
%TD*%
D20*
%TO.C,R24*%
X128585000Y-115430500D03*
X128585000Y-113780500D03*
%TD*%
%TO.C,R47*%
X118679000Y-89268500D03*
X118679000Y-87618500D03*
%TD*%
D36*
%TO.C,D8*%
X110805999Y-106604499D03*
X114105999Y-106604499D03*
%TD*%
D17*
%TO.C,C25*%
X112342000Y-111811500D03*
X110792000Y-111811500D03*
%TD*%
D38*
%TO.C,Q3*%
X114320999Y-95621499D03*
X114320999Y-97521499D03*
X116940999Y-96571499D03*
%TD*%
D17*
%TO.C,C23*%
X112342000Y-108763500D03*
X110792000Y-108763500D03*
%TD*%
D38*
%TO.C,Q4*%
X114320999Y-100193499D03*
X114320999Y-102093499D03*
X116940999Y-101143499D03*
%TD*%
D20*
%TO.C,R51*%
X133411000Y-115430500D03*
X133411000Y-113780500D03*
%TD*%
D10*
%TO.C,R57*%
X118679000Y-100318500D03*
X118679000Y-101968500D03*
%TD*%
D36*
%TO.C,D11*%
X140449999Y-70374999D03*
X143749999Y-70374999D03*
%TD*%
D10*
%TO.C,R56*%
X120203000Y-100318500D03*
X120203000Y-101968500D03*
%TD*%
D39*
%TO.C,U1*%
X147731000Y-103992500D03*
X148231000Y-103992500D03*
X148731000Y-103992500D03*
X149231000Y-103992500D03*
X149731000Y-103992500D03*
X150231000Y-103992500D03*
X150731000Y-103992500D03*
X151231000Y-103992500D03*
X151731000Y-103992500D03*
X152231000Y-103992500D03*
X152731000Y-103992500D03*
X153231000Y-103992500D03*
X153731000Y-103992500D03*
X154231000Y-103992500D03*
X154731000Y-103992500D03*
X155231000Y-103992500D03*
X155731000Y-103992500D03*
X156231000Y-103992500D03*
X156731000Y-103992500D03*
X157231000Y-103992500D03*
X157731000Y-103992500D03*
X158231000Y-103992500D03*
X158731000Y-103992500D03*
X159231000Y-103992500D03*
X159731000Y-103992500D03*
D40*
X161406000Y-102317500D03*
X161406000Y-101817500D03*
X161406000Y-101317500D03*
X161406000Y-100817500D03*
X161406000Y-100317500D03*
X161406000Y-99817500D03*
X161406000Y-99317500D03*
X161406000Y-98817500D03*
X161406000Y-98317500D03*
X161406000Y-97817500D03*
X161406000Y-97317500D03*
X161406000Y-96817500D03*
X161406000Y-96317500D03*
X161406000Y-95817500D03*
X161406000Y-95317500D03*
X161406000Y-94817500D03*
X161406000Y-94317500D03*
X161406000Y-93817500D03*
X161406000Y-93317500D03*
X161406000Y-92817500D03*
X161406000Y-92317500D03*
X161406000Y-91817500D03*
X161406000Y-91317500D03*
X161406000Y-90817500D03*
X161406000Y-90317500D03*
D39*
X159731000Y-88642500D03*
X159231000Y-88642500D03*
X158731000Y-88642500D03*
X158231000Y-88642500D03*
X157731000Y-88642500D03*
X157231000Y-88642500D03*
X156731000Y-88642500D03*
X156231000Y-88642500D03*
X155731000Y-88642500D03*
X155231000Y-88642500D03*
X154731000Y-88642500D03*
X154231000Y-88642500D03*
X153731000Y-88642500D03*
X153231000Y-88642500D03*
X152731000Y-88642500D03*
X152231000Y-88642500D03*
X151731000Y-88642500D03*
X151231000Y-88642500D03*
X150731000Y-88642500D03*
X150231000Y-88642500D03*
X149731000Y-88642500D03*
X149231000Y-88642500D03*
X148731000Y-88642500D03*
X148231000Y-88642500D03*
X147731000Y-88642500D03*
D40*
X146056000Y-90317500D03*
X146056000Y-90817500D03*
X146056000Y-91317500D03*
X146056000Y-91817500D03*
X146056000Y-92317500D03*
X146056000Y-92817500D03*
X146056000Y-93317500D03*
X146056000Y-93817500D03*
X146056000Y-94317500D03*
X146056000Y-94817500D03*
X146056000Y-95317500D03*
X146056000Y-95817500D03*
X146056000Y-96317500D03*
X146056000Y-96817500D03*
X146056000Y-97317500D03*
X146056000Y-97817500D03*
X146056000Y-98317500D03*
X146056000Y-98817500D03*
X146056000Y-99317500D03*
X146056000Y-99817500D03*
X146056000Y-100317500D03*
X146056000Y-100817500D03*
X146056000Y-101317500D03*
X146056000Y-101817500D03*
X146056000Y-102317500D03*
%TD*%
D13*
%TO.C,R22*%
X112392000Y-114859500D03*
X110742000Y-114859500D03*
%TD*%
D10*
%TO.C,R53*%
X112583000Y-92190500D03*
X112583000Y-93840500D03*
%TD*%
D36*
%TO.C,D7*%
X114105999Y-104191499D03*
X110805999Y-104191499D03*
%TD*%
D41*
%TO.C,U3*%
X134706399Y-108179299D03*
X134706399Y-107391899D03*
X134706399Y-106579099D03*
X134706399Y-105791699D03*
X134706399Y-104978899D03*
X134706399Y-104191499D03*
X134706399Y-103404099D03*
X134706399Y-102591299D03*
X134706399Y-101803899D03*
X134706399Y-100991099D03*
X134706399Y-100203699D03*
D42*
X133080799Y-98578099D03*
X132293399Y-98578099D03*
X131480599Y-98578099D03*
X130693199Y-98578099D03*
X129880399Y-98578099D03*
X129092999Y-98578099D03*
X128305599Y-98578099D03*
X127492799Y-98578099D03*
X126705399Y-98578099D03*
X125892599Y-98578099D03*
X125105199Y-98578099D03*
D41*
X123479599Y-100203699D03*
X123479599Y-100991099D03*
X123479599Y-101803899D03*
X123479599Y-102591299D03*
X123479599Y-103404099D03*
X123479599Y-104191499D03*
X123479599Y-104978899D03*
X123479599Y-105791699D03*
X123479599Y-106579099D03*
X123479599Y-107391899D03*
X123479599Y-108179299D03*
D42*
X125105199Y-109804899D03*
X125892599Y-109804899D03*
X126705399Y-109804899D03*
X127492799Y-109804899D03*
X128305599Y-109804899D03*
X129092999Y-109804899D03*
X129880399Y-109804899D03*
X130693199Y-109804899D03*
X131480599Y-109804899D03*
X132293399Y-109804899D03*
X133080799Y-109804899D03*
%TD*%
D20*
%TO.C,R49*%
X120203000Y-93840500D03*
X120203000Y-92190500D03*
%TD*%
D17*
%TO.C,C20*%
X112342000Y-116383500D03*
X110792000Y-116383500D03*
%TD*%
D10*
%TO.C,R55*%
X120203000Y-95746500D03*
X120203000Y-97396500D03*
%TD*%
%TO.C,R20*%
X91247000Y-85586500D03*
X91247000Y-87236500D03*
%TD*%
%TO.C,R50*%
X118679000Y-92190500D03*
X118679000Y-93840500D03*
%TD*%
D21*
%TO.C,R21*%
X110742000Y-113335500D03*
X112392000Y-113335500D03*
%TD*%
D17*
%TO.C,C24*%
X112342000Y-110287500D03*
X110792000Y-110287500D03*
%TD*%
D10*
%TO.C,R59*%
X112583000Y-100318500D03*
X112583000Y-101968500D03*
%TD*%
%TO.C,R52*%
X112583000Y-89124500D03*
X112583000Y-90774500D03*
%TD*%
D12*
%TO.C,C18*%
X127200000Y-90983500D03*
X128750000Y-90983500D03*
%TD*%
D20*
%TO.C,R48*%
X120203000Y-89268500D03*
X120203000Y-87618500D03*
%TD*%
D14*
%TO.C,C22*%
X131887000Y-115380500D03*
X131887000Y-113830500D03*
%TD*%
D10*
%TO.C,R19*%
X89215000Y-94730500D03*
X89215000Y-96380500D03*
%TD*%
D38*
%TO.C,Q1*%
X114320999Y-87493499D03*
X114320999Y-89393499D03*
X116940999Y-88443499D03*
%TD*%
D11*
%TO.C,C16*%
X143800000Y-80775000D03*
X143800000Y-82325000D03*
%TD*%
D43*
%TO.C,R14*%
X143800000Y-79393000D03*
X143800000Y-78373000D03*
%TD*%
D38*
%TO.C,Q2*%
X114320999Y-92065499D03*
X114320999Y-93965499D03*
X116940999Y-93015499D03*
%TD*%
D20*
%TO.C,R46*%
X134935000Y-115430500D03*
X134935000Y-113780500D03*
%TD*%
D44*
%TO.C,U8*%
X122678000Y-116256500D03*
X122678000Y-114986500D03*
X122678000Y-113716500D03*
X122678000Y-112446500D03*
X117728000Y-112446500D03*
X117728000Y-113716500D03*
X117728000Y-114986500D03*
X117728000Y-116256500D03*
%TD*%
D18*
%TO.C,Y2*%
X128224999Y-93983499D03*
X124524999Y-93983499D03*
%TD*%
D36*
%TO.C,D10*%
X117282999Y-110287499D03*
X120582999Y-110287499D03*
%TD*%
D17*
%TO.C,C19*%
X125550000Y-90983500D03*
X124000000Y-90983500D03*
%TD*%
D10*
%TO.C,R58*%
X112583000Y-97270500D03*
X112583000Y-98920500D03*
%TD*%
M02*
