%TF.GenerationSoftware,KiCad,Pcbnew,7.0.0-rc1-unknown-0.4.rc2.fc37*%
%TF.CreationDate,2023-02-14T20:33:30-08:00*%
%TF.ProjectId,prius_gen2,70726975-735f-4676-956e-322e6b696361,rev?*%
%TF.SameCoordinates,Original*%
%TF.FileFunction,Soldermask,Bot*%
%TF.FilePolarity,Negative*%
%FSLAX46Y46*%
G04 Gerber Fmt 4.6, Leading zero omitted, Abs format (unit mm)*
G04 Created by KiCad (PCBNEW 7.0.0-rc1-unknown-0.4.rc2.fc37) date 2023-02-14 20:33:30*
%MOMM*%
%LPD*%
G01*
G04 APERTURE LIST*
%ADD10R,1.600000X1.600000*%
%ADD11C,1.600000*%
%ADD12C,2.000000*%
%ADD13R,2.625000X2.625000*%
%ADD14C,2.625000*%
%ADD15C,0.990600*%
%ADD16C,0.787400*%
%ADD17R,1.700000X1.700000*%
%ADD18O,1.700000X1.700000*%
%ADD19C,0.600000*%
G04 APERTURE END LIST*
D10*
%TO.C,C30*%
X130873499Y-124844999D03*
D11*
X130873500Y-128345000D03*
%TD*%
D12*
%TO.C,J3*%
X107183000Y-75054500D03*
X89083000Y-76554500D03*
X89083000Y-123954500D03*
X107183000Y-125454500D03*
D13*
X95882999Y-86254499D03*
D14*
X95883000Y-90254500D03*
X95883000Y-94254500D03*
X95883000Y-98254500D03*
X95883000Y-102254500D03*
X95883000Y-106254500D03*
X95883000Y-110254500D03*
X95883000Y-114254500D03*
X99883000Y-88254500D03*
X99883000Y-92254500D03*
X99883000Y-96254500D03*
X99883000Y-100254500D03*
X99883000Y-104254500D03*
X99883000Y-108254500D03*
X99883000Y-112254500D03*
X103883000Y-86254500D03*
X103883000Y-90254500D03*
X103883000Y-94254500D03*
X103883000Y-98254500D03*
X103883000Y-102254500D03*
X103883000Y-106254500D03*
X103883000Y-110254500D03*
X103883000Y-114254500D03*
%TD*%
D15*
%TO.C,J2*%
X152355000Y-70289000D03*
X153371000Y-75369000D03*
X151339000Y-75369000D03*
D16*
X152990000Y-71559000D03*
X151720000Y-71559000D03*
X152990000Y-72829000D03*
X151720000Y-72829000D03*
X152990000Y-74099000D03*
X151720000Y-74099000D03*
%TD*%
D12*
%TO.C,J4*%
X188023000Y-119009500D03*
X206123000Y-117509500D03*
X206123000Y-82109500D03*
X188023000Y-80609500D03*
D13*
X199322999Y-107809499D03*
D14*
X199323000Y-103809500D03*
X199323000Y-99809500D03*
X199323000Y-95809500D03*
X199323000Y-91809500D03*
X195323000Y-105809500D03*
X195323000Y-101809500D03*
X195323000Y-97809500D03*
X195323000Y-93809500D03*
X191323000Y-107809500D03*
X191323000Y-103809500D03*
X191323000Y-99809500D03*
X191323000Y-95809500D03*
X191323000Y-91809500D03*
%TD*%
D17*
%TO.C,J5*%
X146249999Y-70454999D03*
D18*
X146249999Y-72994999D03*
X146249999Y-75534999D03*
X146249999Y-78074999D03*
X146249999Y-80614999D03*
%TD*%
D12*
%TO.C,TP6*%
X170241000Y-90983500D03*
%TD*%
%TO.C,TP3*%
X157500000Y-83871500D03*
%TD*%
%TO.C,TP4*%
X172019000Y-87681500D03*
%TD*%
%TO.C,TP7*%
X166685000Y-90983500D03*
%TD*%
%TO.C,TP9*%
X176275000Y-87750000D03*
%TD*%
%TO.C,TP8*%
X174225000Y-90975000D03*
%TD*%
%TO.C,TP1*%
X160843000Y-83871500D03*
%TD*%
%TO.C,TP5*%
X168463000Y-87681500D03*
%TD*%
D19*
X190750000Y-84558500D03*
X168209000Y-122035000D03*
X164335500Y-85395500D03*
X208339500Y-102783000D03*
X168000000Y-94475000D03*
X158000000Y-90750000D03*
X169240000Y-98971500D03*
X114424500Y-77394500D03*
X165575000Y-89550000D03*
X148270000Y-117272500D03*
X158250000Y-93750000D03*
X144800000Y-103775000D03*
X136332000Y-126543500D03*
X145075000Y-76725000D03*
X178115000Y-117272500D03*
X166192000Y-98971500D03*
X144975000Y-79425000D03*
X149222500Y-117272500D03*
X142555000Y-130290000D03*
X146301500Y-124067000D03*
X168209000Y-123813000D03*
X144075000Y-99650000D03*
X155572500Y-131242500D03*
X152104000Y-105334500D03*
X120393500Y-70854000D03*
X179829500Y-109271500D03*
X88326000Y-106731500D03*
X140396000Y-104255000D03*
X150775000Y-91250000D03*
X150600000Y-99800000D03*
X137348000Y-94857000D03*
X156588500Y-77648500D03*
X149476500Y-109970000D03*
X128077000Y-111557500D03*
X150625000Y-101600000D03*
X163129000Y-101969000D03*
X137348000Y-88316500D03*
X113345000Y-128702500D03*
X150683000Y-126035500D03*
X141285000Y-101715000D03*
X125575000Y-89483500D03*
X130109000Y-100381500D03*
X133157000Y-111811500D03*
X145150000Y-74300000D03*
X122870000Y-128829500D03*
X142555000Y-128258000D03*
X139507000Y-130861500D03*
X144206000Y-101524500D03*
X147762000Y-109970000D03*
X126000000Y-111700000D03*
X208339500Y-100687500D03*
X166304000Y-119177500D03*
X145349000Y-130861500D03*
X177607000Y-118225000D03*
X153162000Y-85852000D03*
X147750000Y-94950000D03*
X157731500Y-130925000D03*
X157985500Y-109970000D03*
X167193000Y-101270500D03*
X175145500Y-98908000D03*
X147317500Y-117272500D03*
X132649000Y-105461500D03*
X125283000Y-106223500D03*
X143375000Y-72100000D03*
X168209000Y-122987500D03*
X154429500Y-113335500D03*
X138554500Y-81649000D03*
X85278000Y-106731500D03*
X162600000Y-104575000D03*
X123251000Y-98857500D03*
X153921500Y-131242500D03*
X154747000Y-131242500D03*
X152842000Y-113335500D03*
X157096500Y-105779000D03*
X158300000Y-100650000D03*
X154048500Y-74092500D03*
X159509500Y-109970000D03*
X112329000Y-128702500D03*
X176654500Y-76315000D03*
X127175000Y-89483500D03*
X146936500Y-118415500D03*
X114361000Y-128702500D03*
X161900000Y-88550000D03*
X123060500Y-70854000D03*
X172161000Y-98908000D03*
X126045000Y-79271500D03*
X122679500Y-76696000D03*
X142555000Y-129274000D03*
X162225000Y-87425000D03*
X120965000Y-81077500D03*
X132737500Y-70829000D03*
X143698000Y-104255000D03*
X156271000Y-105715500D03*
X142936000Y-89586500D03*
X139600000Y-76325000D03*
X147190500Y-86856000D03*
X149921000Y-105588500D03*
X163891000Y-94793500D03*
X164526000Y-89459500D03*
X163258500Y-109396000D03*
X164653000Y-118923500D03*
X155064500Y-71616000D03*
X150378500Y-107544000D03*
X136903500Y-73140000D03*
X153921500Y-94764900D03*
X156525000Y-74219500D03*
X136509500Y-110618000D03*
X161986000Y-72505000D03*
X114488000Y-80887000D03*
X134808000Y-93841000D03*
X171447500Y-113272000D03*
X136509500Y-108052000D03*
X134808000Y-89904000D03*
X181417000Y-123051000D03*
X136509500Y-103887000D03*
X134808000Y-96444500D03*
X129347000Y-96571500D03*
X141350000Y-70500000D03*
X115631000Y-113335500D03*
X112424500Y-113208500D03*
X124775000Y-114351500D03*
X130871000Y-116891500D03*
X138681500Y-97143000D03*
X155856234Y-97159000D03*
X155344929Y-97786000D03*
X136776500Y-97778000D03*
X124160000Y-78644500D03*
X124223500Y-79914500D03*
X117505000Y-89649500D03*
X117455000Y-97849500D03*
X116005000Y-106549500D03*
X149823500Y-77985618D03*
X145476000Y-84200000D03*
X150325000Y-73275000D03*
X150775000Y-71550000D03*
X150501500Y-78550000D03*
X149032000Y-83825000D03*
X176908500Y-108382500D03*
X178877000Y-113081500D03*
X176816500Y-111713000D03*
X171233675Y-108390275D03*
X144750000Y-86300000D03*
X152750000Y-90400000D03*
X124561600Y-82453700D03*
X150215600Y-94792800D03*
X123850400Y-83007200D03*
X149580600Y-95580200D03*
X166685000Y-81331500D03*
X165669000Y-82093500D03*
X166166228Y-83606728D03*
X184654000Y-101830500D03*
X114361000Y-109525500D03*
X113924194Y-107564694D03*
X121355000Y-88449500D03*
X111455000Y-99199500D03*
X119155000Y-102889500D03*
X120055000Y-94699500D03*
X120711000Y-111557500D03*
X120965000Y-114351500D03*
X120355000Y-98499500D03*
X120305000Y-103699500D03*
X148803000Y-91547000D03*
X142675000Y-81400000D03*
X109535000Y-97841500D03*
X128331000Y-113589500D03*
X131379000Y-113843500D03*
X111567000Y-100381500D03*
X129855000Y-92507500D03*
X129855000Y-87173500D03*
X127492800Y-101321300D03*
X128331000Y-102413500D03*
X130617000Y-91526500D03*
X129855000Y-85141500D03*
X130718600Y-111303500D03*
X129880400Y-111303500D03*
X92136000Y-105906000D03*
X154550000Y-101600000D03*
X159668003Y-102018003D03*
X180084750Y-100065250D03*
X167750000Y-96571500D03*
X172161000Y-95542500D03*
X167200000Y-99477500D03*
X159700000Y-101100000D03*
X198116000Y-86781000D03*
X171685500Y-119542500D03*
X159400000Y-105400000D03*
X171828500Y-107600000D03*
X164950000Y-105250000D03*
M02*
