%TF.GenerationSoftware,KiCad,Pcbnew,7.0.0-rc1-unknown-0.4.rc2.fc37*%
%TF.CreationDate,2023-02-14T20:33:30-08:00*%
%TF.ProjectId,prius_gen2,70726975-735f-4676-956e-322e6b696361,rev?*%
%TF.SameCoordinates,Original*%
%TF.FileFunction,Other,Comment*%
%FSLAX46Y46*%
G04 Gerber Fmt 4.6, Leading zero omitted, Abs format (unit mm)*
G04 Created by KiCad (PCBNEW 7.0.0-rc1-unknown-0.4.rc2.fc37) date 2023-02-14 20:33:30*
%MOMM*%
%LPD*%
G01*
G04 APERTURE LIST*
%ADD10C,0.070000*%
G04 APERTURE END LIST*
D10*
%TO.C,J2*%
X152501952Y-74067095D02*
X152101952Y-74067095D01*
X152501952Y-73838524D02*
X152273380Y-74009953D01*
X152101952Y-73838524D02*
X152330523Y-74067095D01*
X152292428Y-73667095D02*
X152292428Y-73533762D01*
X152501952Y-73476619D02*
X152501952Y-73667095D01*
X152501952Y-73667095D02*
X152101952Y-73667095D01*
X152101952Y-73667095D02*
X152101952Y-73476619D01*
X152292428Y-73305190D02*
X152292428Y-73171857D01*
X152501952Y-73114714D02*
X152501952Y-73305190D01*
X152501952Y-73305190D02*
X152101952Y-73305190D01*
X152101952Y-73305190D02*
X152101952Y-73114714D01*
X152501952Y-72943285D02*
X152101952Y-72943285D01*
X152101952Y-72943285D02*
X152101952Y-72790904D01*
X152101952Y-72790904D02*
X152121000Y-72752809D01*
X152121000Y-72752809D02*
X152140047Y-72733762D01*
X152140047Y-72733762D02*
X152178142Y-72714714D01*
X152178142Y-72714714D02*
X152235285Y-72714714D01*
X152235285Y-72714714D02*
X152273380Y-72733762D01*
X152273380Y-72733762D02*
X152292428Y-72752809D01*
X152292428Y-72752809D02*
X152311476Y-72790904D01*
X152311476Y-72790904D02*
X152311476Y-72943285D01*
X152101952Y-72467095D02*
X152101952Y-72390904D01*
X152101952Y-72390904D02*
X152121000Y-72352809D01*
X152121000Y-72352809D02*
X152159095Y-72314714D01*
X152159095Y-72314714D02*
X152235285Y-72295666D01*
X152235285Y-72295666D02*
X152368619Y-72295666D01*
X152368619Y-72295666D02*
X152444809Y-72314714D01*
X152444809Y-72314714D02*
X152482904Y-72352809D01*
X152482904Y-72352809D02*
X152501952Y-72390904D01*
X152501952Y-72390904D02*
X152501952Y-72467095D01*
X152501952Y-72467095D02*
X152482904Y-72505190D01*
X152482904Y-72505190D02*
X152444809Y-72543285D01*
X152444809Y-72543285D02*
X152368619Y-72562333D01*
X152368619Y-72562333D02*
X152235285Y-72562333D01*
X152235285Y-72562333D02*
X152159095Y-72543285D01*
X152159095Y-72543285D02*
X152121000Y-72505190D01*
X152121000Y-72505190D02*
X152101952Y-72467095D01*
X152101952Y-72124237D02*
X152425761Y-72124237D01*
X152425761Y-72124237D02*
X152463857Y-72105190D01*
X152463857Y-72105190D02*
X152482904Y-72086142D01*
X152482904Y-72086142D02*
X152501952Y-72048047D01*
X152501952Y-72048047D02*
X152501952Y-71971856D01*
X152501952Y-71971856D02*
X152482904Y-71933761D01*
X152482904Y-71933761D02*
X152463857Y-71914714D01*
X152463857Y-71914714D02*
X152425761Y-71895666D01*
X152425761Y-71895666D02*
X152101952Y-71895666D01*
X152101952Y-71762332D02*
X152101952Y-71533761D01*
X152501952Y-71648047D02*
X152101952Y-71648047D01*
%TD*%
M02*
